<?xml version="1.0" encoding="UTF-8" standalone="no"?>
<!-- Created with Inkscape (http://www.inkscape.org/) -->

<svg xmlns="http://www.w3.org/2000/svg" >
  <g
     transform="translate(35.963058,-80.022398)">
    <path
       style="color:#000000;font-style:normal;font-variant:normal;font-weight:normal;font-stretch:normal;font-size:medium;line-height:normal;font-family:sans-serif;font-variant-ligatures:normal;font-variant-position:normal;font-variant-caps:normal;font-variant-numeric:normal;font-variant-alternates:normal;font-feature-settings:normal;text-indent:0;text-align:start;text-decoration:none;text-decoration-line:none;text-decoration-style:solid;text-decoration-color:#000000;letter-spacing:normal;word-spacing:normal;text-transform:none;writing-mode:lr-tb;direction:ltr;text-orientation:mixed;dominant-baseline:auto;baseline-shift:baseline;text-anchor:start;white-space:normal;shape-padding:0;clip-rule:nonzero;display:inline;overflow:visible;visibility:visible;opacity:1;isolation:auto;mix-blend-mode:normal;color-interpolation:sRGB;color-interpolation-filters:linearRGB;solid-color:#000000;solid-opacity:1;vector-effect:none;fill-opacity:1;fill-rule:nonzero;stroke:none;stroke-width:0.26458332;stroke-linecap:butt;stroke-linejoin:miter;stroke-miterlimit:4;stroke-dasharray:none;stroke-dashoffset:0;stroke-opacity:1;color-rendering:auto;image-rendering:auto;shape-rendering:auto;text-rendering:auto;enable-background:accumulate"
       d="m 24.426191,153.80663 60.62266,-0.0708 c 24.422999,-0.0285 39.574359,-0.0628 48.662139,-0.12402 4.5439,-0.0306 7.57179,-0.0678 9.48573,-0.11472 0.95697,-0.0235 1.63521,-0.0493 2.08722,-0.078 0.22598,-0.0144 0.39492,-0.0296 0.51676,-0.046 0.0609,-0.008 0.10993,-0.0168 0.15089,-0.0269 0.041,-0.0101 0.0712,-0.0126 0.11835,-0.0517 0.14399,-0.11952 0.26588,-0.31897 0.37618,-0.55811 0.11034,-0.23914 0.20265,-0.51649 0.25271,-0.78341 0.0507,-0.27017 0.10956,-0.46238 0.1628,-0.56276 0.0257,-0.0485 0.0487,-0.0711 0.0568,-0.077 0.013,0.006 0.0982,0.0812 0.18499,0.25063 0.0878,0.17123 0.18683,0.42528 0.293,0.75654 0.55669,1.73659 2.08087,4.5844 3.29595,6.16345 2.74849,3.57191 7.08678,6.36925 11.34348,7.32514 v 0.005 l 0.10387,0.0227 c 2.20546,0.47982 6.50714,0.47827 8.81187,-0.002 1.0768,-0.22418 3.07446,-0.98522 4.65397,-1.76579 2.34225,-1.15751 3.13351,-1.72536 4.92993,-3.53776 2.39162,-2.41288 3.95179,-4.94122 5.10926,-8.27857 0.67194,-1.93745 0.74147,-2.49083 0.74464,-5.99602 0.003,-3.62786 -0.0479,-4.00522 -0.82835,-6.1991 -1.20076,-3.37559 -2.30958,-5.07554 -5.21571,-8.00158 -0.70895,-0.7138 -1.35348,-1.37783 -1.82004,-1.8712 -0.23289,-0.24625 -0.42103,-0.44972 -0.55036,-0.59531 0.043,0.0186 0.0633,0.0209 0.11472,0.0465 0.2852,0.14209 0.68908,0.38558 1.13327,0.68058 0.88836,0.59001 1.94344,1.38919 2.58537,2.00763 3.53354,3.40431 5.87986,8.579 6.61046,14.60945 0.15885,1.31131 0.37026,2.85616 0.4723,3.4463 l 0.20257,1.16995 2.35027,-0.0398 c 1.35461,-0.0229 4.29159,-0.43144 7.28689,-1.00821 4.32154,-0.83215 9.60212,-1.93147 13.91491,-2.87579 2.15638,-0.47216 4.07109,-0.9054 5.50302,-1.24747 0.71596,-0.17103 1.31098,-0.31919 1.75649,-0.43821 0.44547,-0.11903 0.72961,-0.202 0.87021,-0.26872 0.24956,-0.11843 0.49501,-0.2904 0.6966,-0.47594 0.20161,-0.18555 0.36054,-0.3796 0.43047,-0.57361 0.0391,-0.1085 0.0618,-0.26994 0.0868,-0.50281 0.0249,-0.23288 0.0473,-0.52881 0.0661,-0.86972 0.0378,-0.68181 0.0617,-1.54151 0.0631,-2.4169 0.003,-1.51306 0.0122,-2.31906 0.11006,-2.88717 0.0979,-0.5681 0.27896,-0.9085 0.64493,-1.53117 0.37758,-0.64242 0.58417,-1.02422 0.69866,-1.78335 0.11448,-0.75913 0.14467,-1.89401 0.1974,-4.10156 l 0.10853,-4.55941 -1.50119,-1.83813 c -0.80436,-0.98478 -1.79628,-2.35809 -2.18903,-3.02618 l -0.7126,-1.21181 -0.0408,-6.52776 c -0.0114,-1.80573 -0.0398,-3.51934 -0.0765,-4.82658 -0.0183,-0.65363 -0.0385,-1.20568 -0.06,-1.61748 -0.0109,-0.20589 -0.022,-0.37662 -0.0331,-0.50849 -0.0111,-0.13187 -0.0204,-0.21898 -0.0367,-0.28371 -0.0793,-0.31591 -0.21513,-0.59004 -0.47905,-0.80718 -0.2639,-0.21714 -0.64421,-0.37702 -1.21129,-0.51005 -1.13419,-0.26606 -3.03326,-0.42761 -6.32778,-0.63562 -7.91376,-0.49967 -13.5319,-0.97155 -17.40513,-1.4888 -3.87324,-0.51725 -6.00718,-1.09308 -6.91224,-1.74304 -0.61725,-0.44328 -1.63235,-0.93707 -2.30529,-1.118275 -0.61492,-0.16558 -1.90603,-0.76332 -2.81845,-1.31362 -0.93625,-0.56469 -2.17821,-1.10217 -2.83496,-1.20716 -0.58197,-0.093 -1.49995,-0.44273 -1.98437,-0.75551 -1.78491,-1.15247 -8.09189,-4.74911 -10.99056,-6.26887 -13.00289,-6.81735 -28.06649,-9.88472 -51.3462,-10.22676 v 7e-5 c -3.32568,-0.0489 -6.81858,-0.0423 -10.49756,0.017 -12.424379,0.20054 -17.548639,0.71271 -24.503929,2.44946 -6.91571,1.72687 -11.05154,3.64718 -19.75072,9.1705 -4.14796,2.63362 -8.67405,5.42317 -12.43129,7.67963 -3.75727,2.256465 -6.75566,3.984475 -7.8109,4.478275 -2.96831,1.38904 -7.36978,2.07109 -30.5015101,4.69378 -19.6177969,2.22427 -24.4331349,2.9261 -29.3888859,4.28656 -7.956445,2.1842 -13.182071,6.98258 -14.929856,13.73404 -0.631534,2.43961 -0.93345,6.65028 -0.660426,9.19996 0.159729,1.49151 0.360812,2.01454 1.126569,2.93108 0.613595,0.73446 0.928899,1.23402 1.015418,1.7632 0.08655,0.52919 -0.05125,1.11739 -0.394785,2.03606 -0.381476,1.02003 -0.510063,1.79812 -0.287337,2.56056 0.222726,0.76244 0.783696,1.48816 1.737889,2.4412 2.511928,2.50885 5.955691,3.87262 11.294904,4.49326 l 2.845302,0.33073 m 0,0 0.658892,-0.76688 c 0.206772,-0.24038 0.377137,-0.41282 0.509535,-0.51108 0.132371,-0.0983 0.209973,-0.11369 0.260958,-0.0992 0.05096,0.0145 0.123243,0.0781 0.202565,0.23926 0.07932,0.16119 0.160417,0.40587 0.247015,0.73019 0.738505,2.76609 3.233182,6.70988 5.576412,8.82685 1.6086929,1.45336 4.3781659,3.1741 6.3933919,3.97185 2.574845,1.01927 4.98699904,1.35216 8.509559,1.17925 3.44127,-0.16892 4.88447,-0.57807 8.3302401,-2.36058 4.19307,-2.16907 7.6608,-6.4157 9.4387,-11.54193 0.67196,-1.93744 0.74157,-2.49083 0.74467,-5.99601 0.003,-3.62786 -0.048,-4.00523 -0.82839,-6.19911 -1.20076,-3.37559 -2.30904,-5.07554 -5.21517,-8.00158 -0.70895,-0.7138 -1.35398,-1.37782 -1.82057,-1.8712 -0.19212,-0.20315 -0.33079,-0.35436 -0.45424,-0.49093 0.23677,0.10802 0.54279,0.25959 0.8909,0.44907 2.8802,1.5676 5.98975,5.3956 7.57577,9.35653 0.91154,2.27645 1.34625,5.48623 1.30018,9.679 -0.009,0.79585 0.0188,1.62113 0.0698,2.31511 0.0511,0.69398 0.12087,1.247 0.21755,1.53995 l 0.34263,1.03715 m 0.19087,-0.26508 -0.28215,-0.85473 c -0.0758,-0.22977 -0.15521,-0.79092 -0.20569,-1.4764 -0.0505,-0.68548 -0.0774,-1.50507 -0.0687,-2.29288 0.0463,-4.21247 -0.38671,-7.45183 -1.31929,-9.7808 -1.60835,-4.01666 -4.72662,-7.87447 -7.69461,-9.48986 -0.3747,-0.20394 -0.71501,-0.37468 -0.96533,-0.48679 -0.12515,-0.0561 -0.2267,-0.0977 -0.30488,-0.12247 -0.0391,-0.0124 -0.0701,-0.0213 -0.10904,-0.0243 -0.0196,-0.002 -0.0415,-0.004 -0.0796,0.0108 -0.0381,0.0151 -0.0904,0.081 -0.0904,0.1323 0,0.0468 0.0109,0.0569 0.0169,0.0692 0.006,0.0123 0.0124,0.0216 0.0185,0.031 0.0124,0.0189 0.0274,0.0382 0.046,0.0615 0.0372,0.0466 0.0887,0.1072 0.15505,0.1819 0.13268,0.14942 0.32268,0.3547 0.55708,0.60255 0.46876,0.4957 1.11445,1.16025 1.82467,1.87534 2.89396,2.91375 3.96065,4.54998 5.15371,7.90391 0.77859,2.18885 0.81656,2.48456 0.81338,6.11022 -0.003,3.50199 -0.0613,3.98113 -0.73019,5.90972 -1.75779,5.06825 -5.18938,9.26252 -9.31003,11.39413 -3.4339701,1.77641 -4.7972901,2.16303 -8.2217101,2.33113 -3.50017996,0.17181 -5.858171,-0.15537 -8.398991,-1.16117 -1.970828,-0.78017 -4.740513,-2.50087 -6.3138049,-3.92224 -2.290578,-2.0694 -4.782318,-6.01669 -5.498386,-8.6987 -0.08853,-0.33159 -0.171053,-0.58762 -0.265086,-0.77876 -0.09406,-0.19114 -0.204973,-0.33109 -0.367427,-0.37724 -0.162454,-0.0461 -0.328506,0.0207 -0.491437,0.14159 -0.16293,0.12094 -0.339672,0.30464 -0.551921,0.55139 l -0.567399,0.65991 m 0,0 -2.705788,-0.31471 c -5.30815,-0.61703 -8.67791,-1.9599 -11.138323,-4.4173 -0.943134,-0.94198 -1.469575,-1.63825 -1.671214,-2.32854 -0.201665,-0.69029 -0.09186,-1.39581 0.28112,-2.39314 0.348271,-0.93131 0.507444,-1.56836 0.408755,-2.17196 -0.09869,-0.60359 -0.451141,-1.14448 -1.073838,-1.8898 -0.750173,-0.8979 -0.9085,-1.31314 -1.066589,-2.7895 -0.26752,-2.49786 0.03569,-6.71807 0.653706,-9.10538 1.72339,-6.65729 6.853502,-11.37952 14.743272,-13.54543 4.935987,-1.35503 9.732168,-2.05469 29.3485909,-4.27881 23.1330701,-2.62284 27.5553701,-3.30019 30.5841901,-4.71754 1.0949,-0.51236 4.0758,-2.23295 7.83519,-4.490685 3.75935,-2.25773 8.28688,-5.04826 12.43695,-7.68325 8.69066,-5.51788 12.77757,-7.41569 19.67269,-9.13742 6.93756,-1.73233 12.02571,-2.24076 24.444009,-2.4412 3.6766,-0.0593 7.16706,-0.0658 10.48928,-0.017 v -10e-6 c 23.25549,0.34125 38.26996,3.40278 51.22735,10.19628 2.88631,1.51328 9.21306,5.12265 10.96986,6.25698 0.53422,0.34494 1.44786,0.69274 2.08619,0.79478 0.56356,0.0901 1.83015,0.62335 2.73989,1.17203 0.93359,0.56307 2.20975,1.16079 2.88663,1.343065 0.61892,0.16665 1.64026,0.66108 2.22002,1.07745 1.00144,0.71916 3.14555,1.27169 7.03111,1.79059 3.88557,0.51889 9.50738,0.99051 17.42374,1.49035 3.29221,0.20786 5.19094,0.37304 6.28386,0.62941 0.54644,0.12819 0.88722,0.27854 1.10328,0.45631 0.21606,0.17776 0.31938,0.38311 0.39069,0.66714 0.006,0.0236 0.019,0.11524 0.03,0.24236 0.0109,0.12713 0.0214,0.2956 0.032,0.49972 0.0212,0.40823 0.0416,0.95845 0.0599,1.61075 0.0366,1.3046 0.0652,3.01689 0.0765,4.82089 l 0.0413,6.59909 0.74827,1.2733 c 0.41077,0.69875 1.3998,2.06387 2.21279,3.05925 l 1.4392,1.76216 -0.10647,4.46175 c -0.0527,2.20724 -0.0847,3.34151 -0.19428,4.06848 -0.10964,0.72698 -0.28943,1.04823 -0.66561,1.68827 -0.36828,0.6266 -0.57261,1.01514 -0.67697,1.62057 -0.10432,0.60543 -0.11284,1.4175 -0.11419,2.93161 -0.003,0.87085 -0.0251,1.72676 -0.0625,2.40243 -0.0188,0.33784 -0.0409,0.631 -0.0651,0.8568 -0.0243,0.2258 -0.055,0.39261 -0.0724,0.4408 -0.043,0.11936 -0.17878,0.30131 -0.36121,0.46922 -0.18243,0.16791 -0.41031,0.32652 -0.63045,0.43098 -0.0825,0.0392 -0.38367,0.1342 -0.82526,0.25219 -0.44162,0.11798 -1.03518,0.26595 -1.74977,0.43666 -1.4292,0.34142 -3.34256,0.77451 -5.49785,1.24644 -4.31062,0.94384 -9.59036,2.0427 -13.90873,2.87424 -2.9864,0.57506 -5.93418,0.98148 -7.24141,1.00356 l -2.12338,0.0362 -0.16383,-0.94671 c -0.0993,-0.57404 -0.31229,-2.12481 -0.47078,-3.43287 -0.73652,-6.07961 -3.10168,-11.31201 -6.68951,-14.76861 -0.66397,-0.6397 -1.72304,-1.44019 -2.62258,-2.0376 -0.44973,-0.2987 -0.85801,-0.54531 -1.16167,-0.6966 -0.15182,-0.0756 -0.27446,-0.12836 -0.37931,-0.15141 -0.0524,-0.0115 -0.10115,-0.02 -0.1638,0 -0.0313,0.01 -0.0677,0.0318 -0.092,0.0656 -0.0243,0.0339 -0.0331,0.0742 -0.0331,0.10697 0,0.0468 0.0108,0.057 0.0169,0.0692 0.006,0.0123 0.0122,0.0216 0.0185,0.031 0.0124,0.0189 0.0274,0.0382 0.046,0.0615 0.0372,0.0466 0.0887,0.10719 0.15501,0.1819 0.13272,0.14941 0.32269,0.3547 0.55708,0.60255 0.46879,0.4957 1.11448,1.16024 1.8247,1.87534 2.89394,2.91375 3.96066,4.54997 5.15369,7.9039 0.77862,2.18885 0.81658,2.48456 0.81338,6.11022 -0.003,3.502 -0.0613,3.98114 -0.73017,5.90972 -1.14694,3.30702 -2.67959,5.79115 -5.04671,8.17935 -1.7888,1.80469 -2.52672,2.33368 -4.85966,3.48661 -1.56093,0.77139 -3.56775,1.53116 -4.59041,1.74408 -2.23936,0.46621 -6.56762,0.46638 -8.70181,0.002 -4.21806,-0.91771 -8.5648,-3.70972 -11.29389,-7.2564 -1.18608,-1.54137 -2.71431,-4.40072 -3.25353,-6.08283 -0.10875,-0.3392 -0.21056,-0.60263 -0.30956,-0.79582 -0.099,-0.19319 -0.18397,-0.32665 -0.33124,-0.38085 -0.0736,-0.0271 -0.16629,-0.0161 -0.23151,0.0264 -0.0652,0.0425 -0.10932,0.10374 -0.14832,0.17725 -0.0779,0.14701 -0.13655,0.35522 -0.18966,0.6382 -0.0452,0.24126 -0.13144,0.5023 -0.23254,0.7214 -0.10107,0.21911 -0.22347,0.39752 -0.30488,0.46509 0.0265,-0.0219 0.0135,-0.008 -0.0124,-0.002 -0.0259,0.006 -0.0677,0.0142 -0.12298,0.0217 -0.11062,0.0149 -0.27607,0.0298 -0.49869,0.0439 -0.44524,0.0283 -1.12159,0.0541 -2.07687,0.0775 -1.91056,0.0469 -4.93734,0.0841 -9.48055,0.11472 -9.08648,0.0613 -24.23824,0.0956 -48.661139,0.12402 l -60.43091,0.0703 m -43.797563,-3.3135 0.05892,-4.49843 c 0.08602,-6.60597 0.614786,-9.01764 2.65512,-12.13311 1.505903,-2.29942 4.038018,-4.71799 6.367066,-6.08335 3.5922739,-2.10592 9.0203369,-3.28374 13.8239569,-2.99207 6.7007001,0.40685 11.8400701,2.42685 16.0388301,6.29574 2.13148,1.96404 3.48019,3.74505 4.34546,6.13193 0.86527,2.38687 1.24531,5.3875 1.41232,9.77563 0.045,1.18332 0.10247,2.30272 0.15917,3.15381 0.0283,0.42554 0.0564,0.78364 0.0827,1.05058 0.0132,0.13347 0.0259,0.24386 0.0382,0.3297 0.0124,0.0858 0.0193,0.13951 0.0403,0.1943 0.0409,0.10652 0.12806,0.19152 0.24342,0.25425 0.11536,0.0627 0.26249,0.10917 0.45215,0.14831 0.37933,0.0783 0.93215,0.12575 1.72963,0.15865 0.31655,0.0131 2.19234,0.0236 5.35263,0.0336 3.16031,0.01 7.59023,0.0184 12.96511,0.0253 10.74976,0.0139 25.28014,0.021 40.99645,0.0176 l 57.297289,-0.0129 -0.11576,-1.07228 c -0.0254,-0.235 -0.0533,-1.02641 -0.0739,-2.08049 -0.0206,-1.05409 -0.0354,-2.38104 -0.0393,-3.72639 l -0.014,-4.87102 0.86143,-2.30219 c 2.20954,-5.90454 6.59204,-10.10027 12.54758,-12.01373 5.60347,-1.80037 12.1808,-1.66374 18.05109,0.37775 3.00799,1.04607 5.62552,2.70487 8.11578,5.14542 2.3433,2.29655 3.32848,3.63056 3.88606,5.24051 0.58243,1.68173 1.84193,7.77872 2.11617,10.26914 0.0814,0.73934 0.18526,1.38788 0.29506,1.87172 0.0549,0.24192 0.11075,0.44222 0.16846,0.59583 0.0577,0.15361 0.0971,0.26278 0.21135,0.33383 0.12912,0.0803 0.29586,0.13442 0.57568,0.13642 0.27985,0.002 0.68474,-0.0404 1.34152,-0.14366 1.3136,-0.20652 3.63376,-0.65863 7.91011,-1.50533 7.76134,-1.53671 12.41703,-2.48195 15.19754,-3.11712 1.39025,-0.31759 2.31153,-0.55733 2.92176,-0.75654 0.61027,-0.19922 0.91332,-0.34902 1.07231,-0.53744 0.20947,-0.24824 0.33758,-0.55727 0.40669,-1.12241 0.0691,-0.56514 0.0878,-1.39963 0.0878,-2.75022 0,-1.58447 0.006,-2.3983 0.10181,-2.92799 0.0961,-0.52968 0.27387,-0.78652 0.65683,-1.31516 0.37939,-0.52372 0.59478,-0.86017 0.72242,-1.50896 0.12769,-0.64879 0.17719,-1.6062 0.26096,-3.43079 l 0.17571,-3.83336 -1.74564,-2.33061 c -1.38457,-1.84863 -2.12035,-2.90604 -2.50942,-3.97237 -0.38907,-1.06632 -0.44079,-2.16158 -0.44079,-4.10672 0,-1.81661 0.0496,-4.70973 0.11006,-6.4239 0.0434,-1.23047 0.0513,-2.03156 0.0103,-2.56987 -0.041,-0.5383 -0.12951,-0.83078 -0.31626,-1.00769 -0.11012,-0.10433 -0.27283,-0.15169 -0.53072,-0.21032 -0.25789,-0.0586 -0.6077,-0.11392 -1.0609,-0.16795 -0.90647,-0.10807 -2.22597,-0.21098 -4.02561,-0.31729 -6.2049,-0.36657 -11.05697,-0.74362 -14.65337,-1.14205 -3.5964,-0.39843 -5.94312,-0.8227 -7.10808,-1.26504 -0.72448,-0.27509 -1.97276,-0.63049 -2.79882,-0.79737 -0.40153,-0.0811 -0.8387,-0.19916 -1.21491,-0.3235 -0.37619,-0.12433 -0.69644,-0.25889 -0.8449,-0.35346 -0.37002,-0.23572 -1.26325,-0.62094 -2.03139,-0.88522 -0.73387,-0.25249 -2.14569,-1.00448 -3.09388,-1.653645 -1.085,-0.7428 -2.19651,-1.27903 -2.94555,-1.39888 -0.32903,-0.0526 -1.00245,-0.31601 -1.9141,-0.76222 -0.91162,-0.44621 -2.07169,-1.07428 -3.42098,-1.85519 -6.4284,-3.72046 -6.51188,-3.76498 -9.88777,-5.29218 -8.58957,-3.88579 -17.46576,-6.1038 -30.51234,-7.62899 -4.85896,-0.56804 -6.16688,-0.60414 -22.10771,-0.6041 l 6e-5,-1e-5 c -14.828629,4e-5 -17.354739,0.0587 -20.259759,0.47284 -8.1145,1.1567 -14.2254,2.8554 -19.11355,5.31958 -1.53837,0.77551 -7.34819,4.25778 -12.95218,7.7587 -7.43606,4.645425 -11.78361,7.307815 -14.71744,8.891955 -2.93386,1.58414 -4.44487,2.0886 -6.2415,2.43189 -3.02077,0.57721 -12.61152,1.82736 -23.26058,3.02979 -21.8727331,2.46975 -24.12484,2.76643 -29.327422,3.86488 -3.742663,0.79022 -6.742986,1.82624 -9.109525,3.14968 -2.211652,1.23683 -5.240681,4.75597 -6.95616,8.04292 l -1.253146,2.40089 -0.210847,3.67006 c -0.05752,1.00255 -0.09988,1.96407 -0.121946,2.70681 -0.01111,0.37137 -0.01693,0.68813 -0.01693,0.92863 -1.59e-4,0.24049 0,0.38966 0.01958,0.48627 0.04837,0.24741 0.153934,0.76346 0.234606,1.14928 0.04731,0.22623 0.193252,0.52689 0.391715,0.86145 0.198464,0.33456 0.450004,0.69534 0.710539,1.00717 0.80309,0.96123 0.897096,1.21761 0.897096,2.4505 0,0.76201 -0.195395,1.88731 -0.418041,2.44378 -0.180208,0.45034 -0.27985,0.76335 -0.29509,1.0604 -0.01535,0.29705 0.05845,0.56569 0.199998,0.90744 0.545333,1.31653 2.212684,2.57228 4.3248,3.5326 2.112116,0.96032 4.675611,1.61467 7.033683,1.65881 l 1.984878,0.0372 m -0.261011,-0.26976 -1.719289,-0.032 c -2.312591,-0.0433 -4.848993,-0.68942 -6.928776,-1.63505 -2.079784,-0.94562 -3.696124,-2.20096 -4.189916,-3.39307 -0.135387,-0.32687 -0.192484,-0.54594 -0.179837,-0.79272 0.0127,-0.24677 0.09917,-0.53379 0.275961,-0.97565 0.247332,-0.61814 0.437171,-1.73667 0.437171,-2.54196 0,-1.24986 -0.144966,-1.64614 -0.958586,-2.62 -0.249766,-0.29895 -0.4953,-0.65064 -0.686276,-0.97255 -0.19095,-0.32191 -0.326919,-0.62181 -0.360177,-0.78083 -0.08043,-0.38466 -0.185764,-0.90115 -0.233574,-1.14567 -0.0053,-0.0264 -0.01508,-0.19936 -0.01508,-0.43563 1.59e-4,-0.23627 0.0061,-0.55115 0.01693,-0.92087 0.02196,-0.73945 0.06403,-1.69926 0.121443,-2.69958 l 0.207725,-3.61322 1.226793,-2.35076 c 1.691852,-3.24165 4.737603,-6.75214 6.850751,-7.93388 2.334709,-1.30563 5.31024,-2.33531 9.035124,-3.12177 5.196893,-1.09727 7.4296589,-1.39155 29.302076,-3.86127 10.65175,-1.20273 20.22787,-2.44903 23.28074,-3.03237 1.81695,-0.34717 3.37124,-0.86818 6.31796,-2.45928 2.94674,-1.5911 7.29459,-4.25432 14.73142,-8.900225 5.60109,-3.49912 11.43894,-6.99388 12.93151,-7.7463 4.85261,-2.44628 10.93486,-4.14004 19.0319,-5.29425 2.88729,-0.41158 5.39409,-0.47022 20.222019,-0.47026 l 2.2e-4,1e-5 c 15.94043,-4e-5 17.22236,0.0345 22.0772,0.60203 13.03097,1.52337 21.87213,3.73463 30.4338,7.6078 3.37566,1.5271 3.43567,1.55936 9.86401,5.27978 1.35295,0.78304 2.51746,1.41364 3.43752,1.86397 0.92004,0.45033 1.58515,0.72146 1.98851,0.786 0.66463,0.10634 1.77387,0.62778 2.83755,1.35599 0.97007,0.664145 2.37162,1.414625 3.15793,1.685165 0.75208,0.25875 1.66148,0.65805 1.97509,0.85783 0.19338,0.12318 0.51776,0.25412 0.90432,0.38189 0.38658,0.12776 0.83095,0.24813 1.24489,0.33176 0.80497,0.16262 2.05698,0.51951 2.75746,0.78548 1.22182,0.46393 3.5691,0.88126 7.1732,1.28054 3.60413,0.39929 8.45934,0.77637 14.66681,1.14309 1.79718,0.10617 3.11351,0.20942 4.00957,0.31626 0.44805,0.0534 0.79129,0.1077 1.03354,0.16278 0.24223,0.0551 0.38725,0.12529 0.40773,0.14469 0.10832,0.10262 0.19536,0.32002 0.2346,0.83561 0.0392,0.51559 0.0319,1.31289 -0.0114,2.54041 -0.0606,1.71955 -0.11006,4.61179 -0.11006,6.4332 0,1.9498 0.0504,3.0837 0.45683,4.19768 0.40645,1.11398 1.15953,2.18879 2.54608,4.04006 l 1.68879,2.25464 -0.17156,3.73879 c -0.0837,1.82396 -0.13528,2.7791 -0.2558,3.39153 -0.12052,0.61243 -0.30062,0.88554 -0.67696,1.40508 -0.38455,0.53085 -0.59873,0.84968 -0.70279,1.42317 -0.10409,0.57349 -0.10647,1.39008 -0.10647,2.97501 0,1.34807 -0.0198,2.17881 -0.0858,2.71818 -0.0659,0.53938 -0.16984,0.77488 -0.34624,0.98392 -0.088,0.10427 -0.35737,0.26206 -0.95239,0.4563 -0.59502,0.19425 -1.51175,0.43355 -2.89854,0.75035 -2.77355,0.63358 -7.42894,1.57896 -15.18976,3.11557 -4.27609,0.84664 -6.59804,1.29852 -7.90029,1.50327 -0.65114,0.10237 -1.0476,0.14235 -1.29813,0.14056 -0.25051,-0.002 -0.34298,-0.0372 -0.4377,-0.0961 0.0143,0.009 -0.0531,-0.0674 -0.10385,-0.20257 -0.0508,-0.13513 -0.10491,-0.32666 -0.15814,-0.56121 -0.10644,-0.46909 -0.20931,-1.11055 -0.2899,-1.84226 -0.27866,-2.53062 -1.52112,-8.57109 -2.12908,-10.32651 -0.57444,-1.65861 -1.59718,-3.03682 -3.95065,-5.34334 -2.5137,-2.46353 -5.16946,-4.14693 -8.21449,-5.20588 -5.92469,-2.06041 -12.55398,-2.1998 -18.21853,-0.37983 -6.02691,1.93641 -10.47906,6.19921 -12.71447,12.17291 l -0.87849,2.34714 0.014,4.91908 c 0.004,1.34678 0.0185,2.67507 0.0393,3.73104 0.0206,1.05596 0.0459,1.82942 0.0754,2.10375 l 0.0837,0.77927 -57.002209,0.0129 c -15.71619,0.003 -30.2469,-0.004 -40.99647,-0.0176 -5.37477,-0.007 -9.80406,-0.0153 -12.96405,-0.0253 -3.16,-0.01 -5.0658,-0.0222 -5.34284,-0.0336 -0.7919,-0.0327 -1.33774,-0.0808 -1.68722,-0.15296 -0.17476,-0.0361 -0.29967,-0.0789 -0.37881,-0.12196 -0.0791,-0.043 -0.10916,-0.0803 -0.12298,-0.11627 0,0.002 -0.014,-0.0575 -0.0254,-0.13694 -0.0114,-0.0795 -0.0238,-0.18722 -0.0367,-0.31833 -0.0259,-0.26222 -0.0539,-0.61851 -0.0822,-1.04231 -0.0565,-0.84761 -0.11422,-1.96498 -0.15917,-3.14607 -0.1674,-4.39875 -0.54684,-7.42599 -1.42782,-9.85624 -0.88099,-2.43025 -2.26539,-4.25584 -4.41471,-6.23631 -4.24423,-3.9108 -9.4566,-5.95593 -16.2021001,-6.36551 -4.85844,-0.29499 -10.318648,0.88546 -13.9738409,3.02824 -2.374186,1.39184 -4.9208,3.82537 -6.454378,6.16707 -2.063459,3.15075 -2.612337,5.6547 -2.698538,12.27419 l -0.0553,4.23229 M 110.53873,84.108055 c -7.88922,-0.006 -15.743219,0.28594 -19.139909,0.76947 -10.56979,1.50461 -18.25614,4.30824 -27.32754,9.96786 -5.08773,3.17423 -17.99056,13.030045 -21.41162,16.359205 -1.07135,1.04258 -1.87187,1.77623 -2.45565,2.24586 -0.29192,0.23482 -0.53001,0.40385 -0.71676,0.51108 -0.18674,0.10723 -0.32324,0.14831 -0.39378,0.14831 -0.21838,0 -0.4727,0.0976 -0.73898,0.24391 -0.26625,0.14631 -0.53909,0.3453 -0.76221,0.56845 -0.57975,0.57974 -0.86923,1.21555 -0.84182,1.8712 0.0274,0.65565 0.36718,1.31548 0.99322,1.96009 l 0.88833,0.91518 -0.008,11.40241 c -0.003,3.15108 0.0151,6.20982 0.0455,8.59948 0.0305,2.38965 0.0719,4.0957 0.123,4.59403 0.0366,0.35722 0.0114,0.66882 0.009,0.95188 -0.003,0.28306 0.0172,0.54753 0.17259,0.77721 0.15542,0.22969 0.4318,0.40126 0.88831,0.53382 0.45654,0.13256 1.10228,0.23087 2.03192,0.30696 3.71859,0.30435 11.98727,0.24484 30.43434,0.28319 8.85089,0.0184 17.04572,0.0422 23.119,0.0661 3.03662,0.012 5.543099,0.0239 7.335459,0.0351 1.78536,0.0112 2.86766,0.0225 3.03546,0.0305 l 0.0119,5.3e-4 c 0.3864,0.0191 2.42607,0.0262 5.44515,0.0248 3.01911,-10e-4 7.00074,-0.0124 11.21741,-0.0326 6.9483,-0.0331 10.79304,-0.0617 12.95992,-0.13229 1.08347,-0.0353 1.74655,-0.0806 2.17559,-0.14417 0.42905,-0.0635 0.63762,-0.14938 0.77462,-0.27337 0.4703,-0.42561 1.04651,-1.28847 1.68,-2.45463 0.63349,-1.16616 1.31675,-2.63235 1.96734,-4.24574 0.70085,-1.73819 1.64875,-3.7483 2.07944,-4.42557 0.45016,-0.70788 1.4972,-2.47131 2.3332,-3.92792 0.8341,-1.45337 2.41834,-4.13267 3.51864,-5.95054 2.12098,-3.50414 4.9897,-8.91401 7.8636,-14.82752 0.95473,-1.9645 2.25775,-4.64352 2.89544,-5.95313 0.93642,-1.92314 1.41867,-3.40969 1.43712,-4.7625 0.0185,-1.352805 -0.43257,-2.560775 -1.32964,-3.904155 -1.72117,-2.57747 -5.34802,-4.86041 -11.17553,-7.07812 -8.32545,-3.1683 -16.95619,-4.52652 -31.39654,-4.94595 -2.47388,-0.0719 -5.10725,-0.10664 -7.737,-0.10852 z m -0.004,0.2651 c 2.62933,0.002 5.26196,0.0362 7.73287,0.10801 14.42683,0.41903 23.01809,1.77275 31.31024,4.92838 5.80504,2.20916 9.3839,4.48367 11.04945,6.97787 0.87932,1.3168 1.30283,2.46138 1.28519,3.753765 -0.0177,1.29239 -0.48173,2.74342 -1.41026,4.65036 -0.63775,1.30977 -1.94069,3.98857 -2.89541,5.95313 -2.87137,5.90831 -5.73903,11.31499 -7.85223,14.80633 -1.10167,1.82015 -2.68555,4.49866 -3.52176,5.95571 -0.83437,1.4538 -1.88444,3.22085 -2.32752,3.91759 -0.46254,0.72736 -1.39591,2.71947 -2.10116,4.46846 -0.64733,1.60534 -1.32723,3.06433 -1.9544,4.21887 -0.62716,1.15454 -1.20917,2.00784 -1.62522,2.38435 -0.0845,0.0765 -0.22786,0.14736 -0.63561,0.20774 -0.40775,0.0604 -1.06609,0.10641 -2.14562,0.14159 -2.15905,0.0704 -6.00416,0.0991 -12.9522,0.13229 -4.21632,0.0201 -8.1983,0.0311 -11.21687,0.0326 -3.01856,0.001 -5.09048,-0.008 -5.43171,-0.0248 -0.2026,-0.01 -1.26601,-0.0198 -3.05872,-0.031 -1.79274,-0.0112 -4.299239,-0.0232 -7.335999,-0.0351 -6.07348,-0.024 -14.26847,-0.0477 -23.1195,-0.0661 -18.44781,-0.0384 -26.72929,0.0188 -30.41314,-0.28268 -0.92096,-0.0754 -1.55414,-0.17356 -1.97972,-0.29714 -0.42558,-0.12357 -0.63502,-0.26812 -0.74311,-0.42787 -0.10811,-0.15976 -0.12967,-0.358 -0.12713,-0.62632 0.003,-0.26833 0.0296,-0.5966 -0.01,-0.98134 -0.0461,-0.4496 -0.0915,-2.1827 -0.12195,-4.57078 -0.0304,-2.38808 -0.0478,-5.44538 -0.0455,-8.59534 l 0.008,-11.51041 -0.96324,-0.99167 c -0.59653,-0.61423 -0.89437,-1.21568 -0.91829,-1.78749 -0.0238,-0.57181 0.22112,-1.12958 0.76428,-1.67276 0.20222,-0.20223 0.45884,-0.38995 0.70281,-0.524 0.24397,-0.13405 0.48093,-0.21084 0.61132,-0.21084 0.15439,0 0.31941,-0.0651 0.52557,-0.18345 0.20614,-0.11837 0.45257,-0.29438 0.75083,-0.53434 0.59659,-0.47992 1.40021,-1.21717 2.47428,-2.26239 3.36936,-3.27885 16.31844,-13.174375 21.3677,-16.324585 9.0478,-5.6449 16.68203,-8.42946 27.22417,-9.93014 3.35484,-0.47756 11.211109,-0.77081 19.099109,-0.76636 z m 0.5147,1.22422 c -0.32327,0.0257 -0.58158,0.11124 -0.77928,0.29662 -0.39542,0.37077 -0.52615,1.05399 -0.76068,2.32802 -0.0764,0.41484 -0.17068,0.82246 -0.25942,1.14154 -0.0444,0.15954 -0.0873,0.29726 -0.12557,0.40101 -0.0382,0.10374 -0.0794,0.17862 -0.0842,0.18448 -0.0492,0.06 -0.0574,0.10281 -0.0853,0.18242 -0.0279,0.0796 -0.0602,0.18405 -0.0971,0.31212 -0.0738,0.25614 -0.16579,0.6062 -0.26974,1.02682 -0.20797,0.84122 -0.46445,1.96339 -0.71986,3.16518 -0.51024,2.40092 -1.19406,5.597085 -1.51982,7.101885 -0.25159,1.16229 -0.38668,1.85619 -0.4196,2.3027 -0.0164,0.22326 -0.009,0.38687 0.0326,0.5209 0.0414,0.13403 0.12467,0.23435 0.22272,0.29972 0.0747,0.0498 0.13804,0.0548 0.24083,0.0708 0.10279,0.016 0.23571,0.0291 0.39843,0.0408 0.32541,0.0235 0.77028,0.0398 1.3162,0.0486 1.09183,0.0176 2.58609,0.006 4.31445,-0.0382 3.20051,-0.0816 11.59505,-0.26035 18.6526,-0.39739 12.15424,-0.23601 18.92953,-0.37648 22.71646,-0.49765 1.89347,-0.0606 3.03906,-0.11629 3.74034,-0.17725 0.70128,-0.061 0.95721,-0.10726 1.11156,-0.23513 0.15278,-0.12654 0.30007,-0.34003 0.45424,-0.60926 0.15417,-0.26923 0.30964,-0.593 0.44908,-0.92863 0.27882,-0.67125 0.49763,-1.3762 0.49763,-1.82107 0,-0.770385 -0.45845,-1.736535 -1.4981,-3.268535 -0.4169,-0.61434 -1.59388,-1.57528 -2.85821,-2.46186 -1.26437,-0.88659 -2.58961,-1.6774 -3.33831,-1.88413 -0.48992,-0.13526 -1.34717,-0.54807 -1.85724,-0.89813 -0.2854,-0.19586 -0.85944,-0.45542 -1.62057,-0.76068 -0.76115,-0.30526 -1.70244,-0.64963 -2.69081,-0.98754 -1.97671,-0.67581 -4.13745,-1.32542 -5.4255,-1.5844 -7.16343,-1.44028 -12.18588,-2.0169 -21.05453,-2.41742 -3.1278,-0.14126 -6.48682,-0.32629 -7.44813,-0.40928 -0.5153,-0.0445 -0.91181,-0.0727 -1.23507,-0.047 z m -4.87051,0.01 c -0.23831,-0.0187 -0.53678,-0.005 -0.85627,0.0424 -0.5756,0.0857 -3.04779,0.27223 -5.447209,0.40721 -4.34166,0.24424 -7.42207,0.55535 -10.46499,1.05678 -1.49032,0.24558 -2.11447,0.38237 -4.77284,1.04697 -0.58074,0.14518 -1.5339,0.37379 -2.11461,0.50694 -0.58986,0.13525 -1.60033,0.42253 -2.26083,0.64234 -0.65247,0.21713 -1.84352,0.59251 -2.64221,0.83302 -0.8145,0.24526 -1.943,0.72953 -2.54405,1.09451 -0.57068,0.34654 -2.54119,1.42258 -4.35891,2.37919 -4.41383,2.32286 -6.31729,3.49999 -9.01443,5.57433 -0.65111,0.50075 -1.96186,1.452605 -2.90576,2.110465 -0.948,0.66071 -2.25682,1.61393 -2.9156,2.12338 -0.6518,0.50405 -1.63492,1.21886 -2.17557,1.58182 -0.48979,0.32882 -0.82491,0.58281 -0.99425,0.817 -0.0847,0.1171 -0.13615,0.24797 -0.0946,0.37724 0.0416,0.12927 0.15743,0.20963 0.30229,0.2651 0.28974,0.11094 0.75983,0.15599 1.47434,0.17157 0.7145,0.0156 1.66825,-0.004 2.89231,-0.0481 2.25796,-0.0814 7.43895,-0.26852 11.51353,-0.41548 4.07387,-0.14694 11.57492,-0.38538 16.66772,-0.52969 5.70783,-0.16173 9.70029,-0.28773 12.35893,-0.39377 1.32932,-0.053 2.325309,-0.10086 3.035989,-0.14573 0.71067,-0.0449 1.12858,-0.0844 1.33532,-0.12971 0.19706,-0.0432 0.37089,-0.0863 0.52398,-0.2098 0.15312,-0.12355 0.26845,-0.31411 0.37984,-0.62115 0.22278,-0.61408 0.44529,-1.7252 0.8759,-3.89899 0.12906,-0.651425 0.36843,-1.723505 0.5302,-2.375045 0.46831,-1.88613 1.16996,-5.28328 1.587,-7.68222 0.11334,-0.65207 0.3389,-1.82557 0.50022,-2.60294 0.0819,-0.3948 0.13822,-0.78256 0.1628,-1.09399 0.0122,-0.15571 0.0167,-0.29254 0.0119,-0.40411 -0.005,-0.11156 -0.007,-0.19136 -0.0594,-0.27698 -0.052,-0.0842 -0.13144,-0.1196 -0.2196,-0.1478 -0.0882,-0.0282 -0.19196,-0.0454 -0.3111,-0.0548 z m 4.8917,0.25425 c 0.29017,-0.0231 0.67821,0.002 1.19113,0.0465 0.98025,0.0846 4.32937,0.26846 7.45897,0.4098 8.86177,0.40021 13.86086,0.9745 21.01424,2.41277 1.26005,0.25335 3.42252,0.90212 5.39245,1.57561 0.98496,0.33675 1.92291,0.67959 2.67787,0.98237 0.75496,0.30279 1.33385,0.57162 1.5694,0.73329 0.54267,0.37243 1.3924,0.78465 1.93633,0.93483 0.65421,0.18063 2.00377,0.96733 3.25665,1.84588 1.25286,0.87855 2.43578,1.87015 2.79104,2.39365 1.03044,1.51846 1.45261,2.45824 1.45261,3.120215 0,0.35077 -0.20584,1.06586 -0.47749,1.7198 -0.13581,0.32696 -0.28734,0.6424 -0.43408,0.89865 -0.14673,0.25625 -0.29458,0.45475 -0.39377,0.53692 -0.0376,0.0312 -0.27501,0.11517 -0.96531,0.17518 -0.6903,0.06 -1.8342,0.11569 -3.72586,0.17622 -3.78339,0.12105 -10.55929,0.26164 -22.71337,0.49764 -7.05795,0.13705 -15.45172,0.31579 -18.65416,0.39739 -1.72569,0.044 -3.2176,0.0558 -4.3036,0.0382 -0.54301,-0.009 -0.98441,-0.0247 -1.30123,-0.0475 -0.1584,-0.0114 -0.28601,-0.0247 -0.37671,-0.0388 -0.0907,-0.0141 -0.15433,-0.0424 -0.13488,-0.0294 -0.0599,-0.04 -0.0913,-0.0751 -0.11679,-0.15762 -0.0254,-0.0825 -0.0369,-0.21684 -0.0217,-0.42323 0.0304,-0.41276 0.16336,-1.10652 0.41445,-2.26652 0.32594,-1.50565 1.00999,-4.701145 1.52032,-7.102405 0.25487,-1.19931 0.51083,-2.31969 0.71779,-3.15692 0.10348,-0.41861 0.19494,-0.76649 0.26717,-1.01699 0.0361,-0.12524 0.0674,-0.2266 0.0925,-0.29817 0.0251,-0.0716 0.0596,-0.12541 0.0403,-0.1018 0.0548,-0.0669 0.0856,-0.14685 0.12763,-0.26097 0.0421,-0.11412 0.0871,-0.25735 0.13282,-0.42168 0.0914,-0.32866 0.18632,-0.74185 0.26406,-1.16427 0.234,-1.27106 0.39134,-1.91115 0.68162,-2.18333 0.14515,-0.13609 0.32943,-0.20225 0.6196,-0.22531 z m -4.91236,0.01 c 0.10538,0.008 0.19254,0.0241 0.25114,0.0429 0.0586,0.0187 0.0815,0.0444 0.0755,0.0346 -0.008,-0.0137 0.0161,0.0545 0.0201,0.14935 0.004,0.0949 -1.9e-4,0.22304 -0.0119,0.37155 -0.0236,0.29703 -0.0778,0.67696 -0.15761,1.06144 -0.16214,0.7812 -0.38746,1.95411 -0.50178,2.61172 -0.41569,2.3911 -1.11808,5.78964 -1.58337,7.66362 -0.16341,0.65815 -0.40238,1.72919 -0.5328,2.387445 -0.43055,2.17344 -0.65836,3.28994 -0.86505,3.85971 -0.10335,0.28489 -0.19772,0.42527 -0.29766,0.50591 -0.1,0.0807 -0.22267,0.11509 -0.41444,0.1571 -0.16116,0.0353 -0.58804,0.0794 -1.295,0.12402 -0.707,0.0446 -1.701569,0.0922 -3.029799,0.14521 -2.65647,0.10595 -6.6489,0.23258 -12.35636,0.39429 -5.09368,0.14433 -12.59451,0.3827 -16.66978,0.52969 -4.07458,0.14696 -9.25558,0.3336 -11.5135,0.41496 -1.22201,0.044 -2.17242,0.0634 -2.87685,0.0481 -0.7044,-0.0154 -1.16832,-0.0714 -1.38543,-0.15451 -0.10856,-0.0416 -0.13928,-0.0814 -0.1447,-0.0982 -0.005,-0.0168 -0.004,-0.058 0.0563,-0.14159 0.12081,-0.1671 0.44537,-0.42867 0.9276,-0.75241 0.55076,-0.36975 1.53215,-1.08341 2.19003,-1.59215 0.65091,-0.50335 1.96149,-1.45786 2.90526,-2.11564 0.94787,-0.66063 2.257,-1.611175 2.91558,-2.117695 2.68785,-2.06718 4.56771,-3.22972 8.97673,-5.55004 1.82031,-0.95798 3.77936,-2.02656 4.37285,-2.38694 0.56311,-0.34194 1.69627,-0.83087 2.48253,-1.06763 0.802,-0.24151 1.99223,-0.6169 2.64946,-0.83561 0.64918,-0.21604 1.66277,-0.50342 2.23708,-0.6351 0.58345,-0.13379 1.5358,-0.36212 2.11923,-0.50798 2.65724,-0.66431 3.26517,-0.79788 4.75165,-1.04283 3.03199,-0.49963 6.101,-0.80924 10.4371,-1.05317 2.402759,-0.13517 4.843699,-0.31635 5.470969,-0.40979 0.30261,-0.0451 0.58608,-0.0569 0.79685,-0.0403 z m 50.18299,20.000835 c -1.09757,0.007 -2.59577,0.0239 -4.38216,0.0476 -3.5728,0.0474 -8.29977,0.1237 -13.2855,0.21342 -9.97146,0.17944 -20.9768,0.41135 -25.8532,0.56689 -2.15345,0.0687 -4.16187,0.15066 -5.66375,0.22738 -0.75094,0.0384 -1.37507,0.0755 -1.8283,0.10904 -0.22664,0.0167 -0.41005,0.0327 -0.54673,0.0475 -0.13671,0.0149 -0.20791,0.0184 -0.28372,0.0475 -0.37362,0.14337 -0.69657,0.58453 -1.05058,1.31517 -0.35401,0.73063 -0.72818,1.76234 -1.13223,3.11195 -1.83478,6.12879 -2.30026,10.82245 -2.15852,21.73563 0.0455,3.50536 0.15851,6.32838 0.32866,8.34626 0.0851,1.00893 0.18428,1.8165 0.29766,2.41018 0.0567,0.29685 0.11655,0.5401 0.1819,0.73123 0.0653,0.19112 0.13097,0.33056 0.22788,0.42581 0.0833,0.0819 0.19289,0.1216 0.35449,0.1788 0.16164,0.0572 0.36912,0.11766 0.61032,0.17828 0.48241,0.12124 1.09992,0.24428 1.74045,0.34107 2.23682,0.33801 6.31312,0.37142 28.4665,0.24856 l 5.43324,-0.03 1.01391,-1.58182 c 0.54867,-0.85576 1.4451,-2.7272 2.01176,-4.19095 1.18295,-3.05565 2.99834,-6.49318 4.20852,-7.99073 1.81356,-2.24416 2.95158,-4.06701 4.03386,-6.46266 0.61209,-1.35484 1.62997,-3.36211 2.25465,-4.44624 2.37231,-4.11712 3.50295,-6.20596 5.28185,-9.75702 0.9571,-1.91055 1.58062,-3.30591 1.88619,-4.24212 0.15279,-0.46811 0.22846,-0.81912 0.21963,-1.08159 -0.004,-0.13124 -0.0298,-0.24444 -0.0946,-0.33538 -0.0648,-0.0909 -0.17267,-0.14624 -0.28422,-0.15452 -0.20735,-0.0154 -0.89043,-0.0164 -1.988,-0.009 z m 0.003,0.26459 c 1.09648,-0.007 1.80639,-0.003 1.9668,0.009 0.051,0.004 0.0675,0.0146 0.0884,0.0439 0.0209,0.0293 0.0421,0.0907 0.0455,0.19068 0.007,0.19997 -0.0584,0.53621 -0.20672,0.99064 -0.29663,0.90886 -0.91612,2.30047 -1.87069,4.20595 -1.77739,3.54807 -2.90398,5.62848 -5.27513,9.74359 -0.63307,1.09869 -1.64952,3.10323 -2.26652,4.46898 -1.0744,2.3782 -2.19462,4.17347 -3.9982,6.40529 -1.25272,1.55018 -3.05774,4.98349 -4.24934,8.06152 -0.56005,1.44666 -1.46373,3.32569 -1.988,4.14342 l -0.93639,1.46089 -5.28907,0.0295 c -22.15293,0.12285 -26.2341,0.0853 -28.4262,-0.24598 -0.63257,-0.0956 -1.24349,-0.21736 -1.71514,-0.3359 -0.23582,-0.0593 -0.43722,-0.11769 -0.58652,-0.17053 -0.14928,-0.0528 -0.25348,-0.11452 -0.25734,-0.11834 -0.0393,-0.0386 -0.10371,-0.15023 -0.1628,-0.32298 -0.059,-0.17275 -0.11739,-0.40597 -0.17258,-0.69505 -0.11041,-0.57814 -0.20942,-1.37928 -0.29404,-2.3828 -0.16925,-2.00703 -0.28215,-4.82613 -0.32763,-8.32765 -0.14163,-10.90471 0.31946,-15.55095 2.14715,-21.65604 0.40179,-1.34207 0.77351,-2.36379 1.11672,-3.07217 0.34325,-0.70837 0.66884,-1.09235 0.90745,-1.18391 -0.0138,0.005 0.0862,-0.0172 0.21756,-0.0315 0.13139,-0.0143 0.31308,-0.0304 0.53795,-0.047 0.44972,-0.0333 1.07289,-0.0702 1.82264,-0.10851 1.49945,-0.0766 3.50657,-0.15822 5.65856,-0.22686 4.87209,-0.15541 15.8782,-0.38747 25.84908,-0.5669 4.98541,-0.0897 9.71235,-0.16608 13.28447,-0.21342 1.78604,-0.0237 3.28358,-0.0405 4.38007,-0.0475 z m -55.83278,0.87695 c -0.700879,-0.008 -1.648529,-0.005 -2.815849,0.009 -2.3346,0.029 -5.5472,0.10209 -9.41337,0.21291 -7.73232,0.22163 -18.07835,0.59391 -29.23387,1.06505 -7.18224,0.30333 -10.40426,0.36187 -12.28399,0.82269 -0.93988,0.2304 -1.547,0.56927 -2.11617,1.08158 -0.56917,0.51233 -1.10283,1.19117 -1.9332,2.12132 -2.10101,2.35344 -2.42676,3.1251 -3.01945,7.18819 -0.10854,0.74398 -0.17219,2.64242 -0.20516,5.1139 -0.033,2.47149 -0.0331,5.50478 -0.006,8.47494 0.0274,2.97016 0.0824,5.87669 0.15864,8.09511 0.0381,1.10922 0.0814,2.04597 0.1297,2.7342 0.0241,0.34412 0.0496,0.62632 0.0765,0.83819 0.0268,0.21187 0.0408,0.33702 0.0966,0.44132 0.22238,0.4155 0.70368,0.64737 1.38647,0.71882 0.22455,0.0235 0.82137,0.0407 1.75389,0.0563 0.93255,0.0156 2.19102,0.0285 3.70211,0.0382 3.0222,0.0195 7.0553,0.027 11.51144,0.0238 8.91227,-0.006 19.51701,-0.0572 27.10997,-0.14935 6.11193,-0.0741 9.67886,-0.13102 11.7502,-0.21239 1.03566,-0.0407 1.69659,-0.0872 2.12079,-0.14624 0.21212,-0.0295 0.3651,-0.0619 0.48059,-0.1018 0.11552,-0.0399 0.20042,-0.0879 0.253739,-0.16744 0.0561,-0.0836 0.0858,-0.18667 0.11213,-0.31625 0.0265,-0.12959 0.0452,-0.28417 0.0569,-0.45631 0.0233,-0.34427 0.0182,-0.75819 -0.0212,-1.16582 -0.0758,-0.78568 -0.263679,-4.12828 -0.414439,-7.40161 -0.0754,-1.63772 -0.15833,-3.19184 -0.23101,-4.37648 -0.0363,-0.59232 -0.0701,-1.09191 -0.0992,-1.46451 -0.0291,-0.3726 -0.0494,-0.6027 -0.0734,-0.7121 -0.0812,-0.37052 -0.29223,-0.64675 -0.75345,-0.81649 -0.4612,-0.16974 -1.17462,-0.27023 -2.35075,-0.38654 l -1.65364,-0.16381 -0.0729,-1.50844 c -0.0291,-0.60558 -0.0206,-1.03127 0.031,-1.33377 0.0516,-0.30249 0.13999,-0.47693 0.28006,-0.61701 0.26046,-0.26044 0.6205,-0.38426 1.05008,-0.36742 0.42958,0.0168 0.92525,0.17865 1.42886,0.48989 0.41243,0.25489 0.63939,0.39906 0.87953,0.41031 0.12006,0.006 0.23362,-0.0309 0.34054,-0.0935 0.10692,-0.0626 0.21357,-0.14988 0.34676,-0.26199 0.24966,-0.21019 0.42275,-0.51101 0.56947,-1.08004 0.14671,-0.56903 0.27654,-1.41867 0.44907,-2.77658 0.534909,-4.20999 1.206659,-7.29239 2.222079,-10.20402 0.52409,-1.50273 0.79309,-2.29242 0.77049,-2.80138 -0.0114,-0.25448 -0.12065,-0.45097 -0.30334,-0.56689 -0.18267,-0.11592 -0.41881,-0.1678 -0.71985,-0.22428 -0.20582,-0.0386 -0.64683,-0.0552 -1.34771,-0.0636 z m -0.003,0.26407 c 0.69715,0.008 1.15811,0.0324 1.30225,0.0594 0.29435,0.0552 0.50575,0.11075 0.62683,0.18759 0.1211,0.0768 0.17161,0.15804 0.18036,0.35502 0.0175,0.39395 -0.23259,1.20233 -0.75602,2.70319 -1.02261,2.93221 -1.69812,6.0358 -2.234509,10.25725 -0.17216,1.3551 -0.30274,2.20053 -0.44286,2.74402 -0.14012,0.5435 -0.28027,0.77237 -0.48368,0.94361 -0.13118,0.11042 -0.23072,0.19001 -0.30954,0.23617 -0.0788,0.0462 -0.13086,0.0603 -0.19484,0.0574 -0.1279,-0.006 -0.34277,-0.11756 -0.75292,-0.37104 -0.53462,-0.33042 -1.07027,-0.50955 -1.55753,-0.52865 -0.48725,-0.0191 -0.92958,0.12653 -1.24745,0.44442 -0.18116,0.18115 -0.29642,0.42198 -0.35399,0.75964 -0.0576,0.33766 -0.0636,0.77699 -0.0341,1.39061 l 0.0837,1.73685 1.88103,0.18603 c 1.17126,0.11583 1.87687,0.22183 2.28512,0.37207 0.40823,0.15025 0.51719,0.30763 0.58653,0.62425 0.0109,0.0495 0.0393,0.30582 0.0682,0.67593 0.029,0.37012 0.0624,0.86951 0.0987,1.46089 0.0726,1.18279 0.15563,2.73533 0.23101,4.37183 0.15084,3.27511 0.33631,6.60001 0.41495,7.41505 0.0379,0.39274 0.0429,0.79531 0.0206,1.12242 -0.0111,0.16355 -0.0292,0.30859 -0.0522,0.42168 -0.023,0.11308 -0.0553,0.19618 -0.0724,0.22169 -0.004,0.006 -0.033,0.0343 -0.12091,0.0646 -0.0878,0.0303 -0.22767,0.0617 -0.43045,0.0899 -0.40555,0.0565 -1.06233,0.10311 -2.09447,0.14366 -2.06425,0.0811 -5.63192,0.13825 -11.74345,0.21239 -7.59119,0.0921 -18.19495,0.14296 -27.10635,0.14934 -4.45572,0.003 -8.48826,-0.004 -11.50938,-0.0238 -1.51058,-0.01 -2.76857,-0.0227 -3.69953,-0.0382 -0.93094,-0.0156 -1.54443,-0.0352 -1.73115,-0.0548 -0.63754,-0.0667 -1.01409,-0.26882 -1.1808,-0.58033 0,-0.002 -0.0414,-0.147 -0.0672,-0.35036 -0.0257,-0.20338 -0.051,-0.48142 -0.0749,-0.82269 -0.0479,-0.68255 -0.0916,-1.61748 -0.12973,-2.7249 -0.0761,-2.21484 -0.13075,-5.12041 -0.15811,-8.08891 -0.0274,-2.96851 -0.0273,-6.00067 0.006,-8.46926 0.0329,-2.46858 0.10141,-4.38524 0.20256,-5.07875 0.59151,-4.0549 0.86326,-4.70729 2.95487,-7.05022 0.83537,-0.93574 1.36903,-1.61194 1.91254,-2.10116 0.54351,-0.48923 1.09445,-0.79854 2.00247,-1.02113 1.81602,-0.44519 5.04828,-0.51153 12.23233,-0.81494 11.15449,-0.47109 21.49914,-0.84347 29.22973,-1.06505 3.8653,-0.11079 7.07716,-0.18388 9.40925,-0.21291 1.16604,-0.0145 2.11248,-0.0181 2.809639,-0.01 z m -8.753479,7.19387 c -2.27883,0.0635 -4.41933,0.31665 -5.38673,0.78031 -0.42936,0.20578 -0.70355,0.4382 -0.81547,0.71004 -0.11192,0.27184 -0.0284,0.56679 0.19172,0.80615 0.44034,0.47873 1.40258,0.8483 2.78434,1.04076 1.19959,0.1671 3.33917,0.17793 5.34281,0.0884 1.00182,-0.0448 1.96805,-0.11512 2.76262,-0.20515 0.7946,-0.09 1.40965,-0.19433 1.74667,-0.32918 0.43419,-0.17372 0.75222,-0.36793 0.95809,-0.58498 0.20587,-0.21706 0.29808,-0.47207 0.24082,-0.71779 -0.0573,-0.24571 -0.24696,-0.46171 -0.53641,-0.64957 -0.28943,-0.18785 -0.68467,-0.3513 -1.18701,-0.48524 -1.42822,-0.3808 -3.82259,-0.51725 -6.10145,-0.45372 z m 0.008,0.26458 c 2.26285,-0.0631 4.65394,0.0792 6.02549,0.44494 0.48371,0.12897 0.85619,0.28592 1.11156,0.45165 0.25535,0.16573 0.38706,0.33662 0.4222,0.48731 0.0351,0.15068 -0.009,0.30163 -0.17468,0.47594 -0.16531,0.17431 -0.45281,0.35667 -0.86455,0.52141 -0.27324,0.10933 -0.89189,0.22306 -1.67794,0.31213 -0.78605,0.0891 -1.74746,0.15904 -2.74452,0.2036 -1.99411,0.0891 -4.13668,0.0745 -5.29476,-0.0868 -1.35078,-0.18815 -2.27597,-0.57573 -2.62673,-0.95705 -0.17537,-0.19066 -0.21331,-0.3511 -0.14108,-0.52658 0.0723,-0.17549 0.28784,-0.38211 0.68525,-0.57258 0.85918,-0.4118 3.01693,-0.69087 5.27976,-0.75396 z m 0.66302,0.94775 c -0.92898,0.009 -1.84539,0.0437 -2.52542,0.10232 -0.34002,0.0293 -0.62021,0.0642 -0.8196,0.10697 -0.0997,0.0214 -0.1782,0.0435 -0.2439,0.076 -0.0329,0.0163 -0.064,0.0342 -0.0935,0.0703 -0.0296,0.0361 -0.0507,0.10697 -0.0326,0.16227 0.0496,0.15077 0.18428,0.2085 0.35036,0.27027 0.16608,0.0618 0.38243,0.1135 0.64183,0.15916 0.51879,0.0913 1.20634,0.15559 1.9513,0.18914 1.4899,0.0671 3.20194,0.0129 4.2349,-0.21446 0.18285,-0.0402 0.33334,-0.10616 0.43976,-0.19896 0.0532,-0.0464 0.097,-0.10071 0.11885,-0.17001 0.0217,-0.0693 0.0127,-0.15454 -0.0274,-0.21963 -0.0537,-0.0869 -0.12042,-0.10229 -0.19897,-0.12764 -0.0785,-0.0253 -0.17507,-0.0458 -0.29147,-0.0646 -0.23275,-0.0376 -0.543,-0.0671 -0.90691,-0.0894 -0.72781,-0.0446 -1.66827,-0.0609 -2.59725,-0.0517 z m 0.003,0.26458 c 0.92409,-0.009 1.86031,0.007 2.57813,0.0512 0.35893,0.022 0.66384,0.0512 0.88109,0.0863 0.10864,0.0176 0.19582,0.0369 0.2527,0.0553 0.0569,0.0184 0.0774,0.0507 0.0553,0.015 0.003,0.006 0.003,-0.005 0,0.001 -0.003,0.006 -0.013,0.0258 -0.0408,0.0501 -0.0558,0.0487 -0.17195,0.10691 -0.32247,0.14004 -0.98068,0.21582 -2.69208,0.27464 -4.16616,0.20826 -0.73702,-0.0332 -1.41695,-0.097 -1.91719,-0.18501 -0.25011,-0.044 -0.45567,-0.0946 -0.59582,-0.14676 -0.0664,-0.0247 -0.0594,-0.0284 -0.0904,-0.0496 0.0275,-0.008 0.0378,-0.0145 0.0739,-0.0222 0.1779,-0.0382 0.45219,-0.073 0.78652,-0.1018 0.66863,-0.0577 1.58118,-0.0927 2.50526,-0.10181 z m -53.66237,0.0134 c -0.12686,0 -0.23204,0.0781 -0.29712,0.17571 -0.0651,0.0976 -0.0998,0.22027 -0.0998,0.35346 0,0.13319 0.0347,0.25636 0.0998,0.35398 0.0651,0.0976 0.17026,0.17519 0.29712,0.17519 0.1269,0 0.23154,-0.0776 0.29663,-0.17519 0.0651,-0.0976 0.10025,-0.22079 0.10025,-0.35398 0,-0.13319 -0.0352,-0.25584 -0.10025,-0.35346 -0.0651,-0.0976 -0.16973,-0.17571 -0.29663,-0.17571 z m 0,0.26459 c 0.0188,0 0.0457,0.0116 0.0765,0.0579 0.0308,0.0462 0.0558,0.12162 0.0558,0.20671 0,0.0851 -0.0249,0.16098 -0.0558,0.20722 -0.0308,0.0462 -0.0578,0.0574 -0.0765,0.0574 -0.0188,0 -0.0462,-0.0111 -0.077,-0.0574 -0.0308,-0.0462 -0.0553,-0.12213 -0.0553,-0.20722 0,-0.0851 0.0243,-0.16046 0.0553,-0.20671 0.0308,-0.0462 0.0584,-0.0579 0.077,-0.0579 z M 0.70424094,127.92535 c -2.31584004,0.11042 -3.92318704,0.61869 -6.44715304,1.8557 -1.806814,0.88553 -2.737777,1.58065 -4.5676879,3.41013 -1.929924,1.92944 -2.493036,2.70413 -3.505729,4.81986 -1.534848,3.2067 -1.91643,4.83447 -1.901164,8.11475 0.03355,7.21415 3.829077,13.19449 10.4158789,16.41553 3.034586,1.48396 4.93164504,1.86471 8.461505,1.69757 2.10124,-0.0995 3.4598,-0.32278 4.93046,-0.81235 5.5912801,-1.86127 9.5790001,-5.68977 11.7057501,-11.23704 0.31708,-0.82703 0.49395,-1.3712 0.58756,-2.19211 0.0936,-0.82092 0.10641,-1.91556 0.10747,-3.87264 0.003,-4.77701 -0.34777,-6.26319 -2.19522,-9.32863 -1.21515,-2.01631 -4.51067,-5.2901 -6.53859,-6.49521 -2.8196901,-1.6756 -4.7622701,-2.21962 -8.4408501,-2.36574 -0.98959,-0.0393 -1.84028,-0.0466 -2.61222996,-0.01 z m 0.0145,0.26148 c 0.76062996,-0.035 1.60189996,-0.0262 2.58690996,0.0129 3.65663,0.14525 5.52048,0.66712 8.3163101,2.32854 1.95358,1.16093 5.27732,4.46234 6.44766,6.40426 1.83591,3.04632 2.1596,4.42768 2.15696,9.19221 0,1.95591 -0.0151,3.04548 -0.10594,3.84266 -0.0909,0.79717 -0.25651,1.30531 -0.57153,2.127 -2.10179,5.48223 -6.01837,9.24207 -11.5424401,11.08097 -1.44736,0.48181 -2.77109,0.70006 -4.85913,0.79892 -3.50691996,0.16605 -5.320904,-0.19781 -8.332841,-1.6707 -6.5069509,-3.18199 -10.2344539,-9.0571 -10.2675799,-16.17937 -0.01508,-3.2598 0.347477,-4.808 1.874811,-7.999 1.007216,-2.10432 1.53125,-2.82414 3.454585,-4.74699 1.8220539,-1.82163 2.7066089,-2.48259 4.4968589,-3.36001 2.510155,-1.23023 4.063496,-1.7263 6.34536604,-1.83141 z m 164.02719906,0.003 c -2.31585,0.11042 -3.92319,0.61869 -6.44716,1.8557 -1.80681,0.88553 -2.73775,1.58065 -4.56768,3.41012 -1.9299,1.92945 -2.49304,2.70413 -3.50573,4.81987 -1.53485,3.2067 -1.91643,4.83447 -1.90117,8.11475 0.0336,7.21415 3.82911,13.19449 10.41591,16.41553 3.03458,1.48396 4.93159,1.86471 8.4615,1.69757 2.10122,-0.0995 3.45978,-0.32278 4.93044,-0.81235 5.59128,-1.86127 9.57902,-5.68977 11.70574,-11.23704 0.31708,-0.82703 0.49396,-1.3712 0.58756,-2.19212 0.0936,-0.82091 0.10645,-1.91555 0.10751,-3.87263 0.003,-4.77701 -0.3478,-6.26319 -2.19523,-9.32863 -1.21517,-2.01631 -4.51069,-5.2901 -6.53862,-6.49521 -2.81966,-1.6756 -4.76229,-2.21962 -8.44084,-2.36574 -0.9896,-0.0393 -1.84028,-0.0466 -2.61223,-0.01 z m 0.0145,0.26148 c 0.76062,-0.035 1.60242,-0.0262 2.58744,0.0129 3.65659,0.14525 5.51998,0.66712 8.31577,2.32854 1.95358,1.16092 5.2773,4.46233 6.44766,6.40426 1.83589,3.04632 2.15961,4.42767 2.15699,9.1922 0,1.95592 -0.0151,3.04549 -0.10594,3.84266 -0.0909,0.79718 -0.25651,1.30531 -0.57155,2.127 -2.1018,5.48224 -6.01837,9.24208 -11.54245,11.08098 -1.44735,0.48181 -2.77111,0.70006 -4.85912,0.79892 -3.50692,0.16605 -5.32088,-0.19781 -8.33285,-1.6707 -6.50692,-3.18199 -10.23445,-9.0571 -10.26757,-16.17937 -0.0151,-3.25981 0.34747,-4.808 1.87481,-7.999 1.00721,-2.10432 1.53125,-2.82414 3.45458,-4.747 1.82208,-1.82162 2.70661,-2.48258 4.49689,-3.36 2.51012,-1.23024 4.06347,-1.7263 6.34534,-1.83141 z M 3.0912409,132.15754 c -1.15438,-0.0364 -2.34224996,0.0732 -3.55739996,0.33073 -9.27597804,1.96598 -13.93801594,13.00253 -8.81343304,20.8716 1.937782,2.97555 4.497414,4.95396 7.787643,6.01772 1.88605004,0.60977 5.47068,0.65169 7.60367,0.0961 2.45182,-0.63862 4.5295901,-1.89524 6.3634401,-3.8468 2.7227,-2.89749 3.93309,-5.79012 3.93309,-9.41234 0,-3.97068 -1.2809,-7.11854 -4.00595,-9.84075 -2.6871101,-2.68427 -5.8479301,-4.10712 -9.3110601,-4.21628 z m -0.008,0.262 c 3.39682,0.10383 6.48475,1.49716 9.1317201,4.14135 2.68253,2.6797 3.92845,5.73952 3.92845,9.65368 0,3.56375 -1.17165,6.36869 -3.86127,9.23096 -1.80446,1.9203 -3.8320201,3.14587 -6.2373401,3.77238 -2.05817,0.53608 -5.66208996,0.48796 -7.45588,-0.092 -3.237259,-1.04663 -5.738074,-2.97884 -7.647069,-5.91023 -5.0227449,-7.71271 -0.450533,-18.54047 8.64649904,-20.46852 1.19592,-0.25347 2.36259996,-0.36224 3.49488996,-0.32763 z m 164.0494091,0.003 c -1.15437,-0.0364 -2.34225,0.0732 -3.5574,0.33073 -9.27597,1.96597 -13.93798,13.00252 -8.81343,20.87159 1.93781,2.97556 4.49739,4.95397 7.78764,6.01772 1.88606,0.60978 5.47069,0.65169 7.60368,0.0961 2.45181,-0.63862 4.52959,-1.89523 6.36344,-3.84679 2.72269,-2.89749 3.93308,-5.79012 3.93308,-9.41235 0,-3.97067 -1.2809,-7.11854 -4.00595,-9.84074 -2.68711,-2.68427 -5.84792,-4.10712 -9.31106,-4.21628 z m -0.008,0.262 c 3.39683,0.10382 6.48475,1.49715 9.13175,4.14135 2.68251,2.6797 3.92843,5.73951 3.92843,9.65367 0,3.56376 -1.17166,6.3687 -3.86125,9.23096 -1.80449,1.92031 -3.83204,3.14588 -6.23734,3.77238 -2.05819,0.53609 -5.66211,0.48796 -7.45588,-0.092 -3.23731,-1.04664 -5.73805,-2.97885 -7.64709,-5.91023 -5.02275,-7.71272 -0.45054,-18.54047 8.6465,-20.46852 1.19594,-0.25347 2.3626,-0.36224 3.49488,-0.32763 z M 1.9900209,133.28192 c -5.611021,0.24403 -10.811221,4.50036 -12.0101279,10.2495 -0.896567,4.2993 0.5353579,8.68728 3.8349239,11.76104 3.215455,2.99543 6.54957404,3.99207 10.942484,3.27267 5.17474,-0.84744 9.4438501,-5.23774 10.3730101,-10.6562 1.14835,-6.69663 -3.74851,-13.30267 -10.7208101,-14.4787 -0.80785,-0.13626 -1.6179,-0.18317 -2.41948,-0.14831 z M 166.03168,133.5465 c -5.61101,0.24403 -10.81119,4.50036 -12.01009,10.24951 -0.89657,4.2993 0.53535,8.68727 3.83489,11.76103 3.21548,2.99543 6.54958,3.99207 10.94248,3.27267 5.17475,-0.84744 9.44385,-5.23773 10.37302,-10.65619 1.14834,-6.69664 -3.74851,-13.30268 -10.72079,-14.47871 -0.80788,-0.13626 -1.61792,-0.18317 -2.41951,-0.14831 z m -164.0308091,5.3e-4 c 0.78377,-0.0345 1.57564,0.0111 2.36471,0.14418 6.8320401,1.15237 11.6260001,7.62836 10.5037501,14.17278 -0.91033,5.30874 -5.1013301,9.61259 -10.1549201,10.44019 -4.33403996,0.70975 -7.548593,-0.25181 -10.719254,-3.20549 -3.235695,-3.01427 -4.6340979,-7.30394 -3.756369,-11.51299 1.173004,-5.62482 6.275732,-9.79685 11.762083,-10.03867 z m 164.0416591,0.26459 c 0.78378,-0.0345 1.57565,0.0111 2.36472,0.14417 6.83204,1.15237 11.626,7.62837 10.50377,14.17278 -0.91035,5.30874 -5.10133,9.61259 -10.15495,10.44019 -4.334,0.70976 -7.54859,-0.25181 -10.71925,-3.20549 -3.23567,-3.01426 -4.63409,-7.30393 -3.75634,-11.51299 1.17298,-5.62482 6.27571,-9.79684 11.76205,-10.03866 z M 5.2110009,135.06425 c -0.20135,0.024 -0.37859,0.0515 -0.53742,0.15968 -0.15883,0.10821 -0.2789,0.28582 -0.39068,0.56948 -0.22355,0.56731 -0.43731,1.59338 -0.8449,3.58531 -0.1575,0.76962 -0.32435,1.50782 -0.46614,2.07584 -0.0709,0.28401 -0.13557,0.52555 -0.18912,0.7059 -0.0536,0.18035 -0.10729,0.31295 -0.11317,0.32246 -0.0585,0.0947 -0.11464,0.1592 -0.1602,0.1943 -0.0456,0.0351 -0.0744,0.0422 -0.10284,0.0398 -0.0568,-0.005 -0.16979,-0.0831 -0.30023,-0.30593 -0.26088,-0.44563 -0.56533,-1.38139 -0.90797,-2.8143 -0.42824996,-1.79108 -0.69640996,-2.83838 -0.92603996,-3.47472 -0.1148,-0.31817 -0.21963,-0.53479 -0.33745,-0.69195 -0.11782,-0.15716 -0.25339,-0.25182 -0.39841,-0.30747 -0.3511,-0.13473 -0.84077004,0.003 -1.42938404,0.26355 -0.588592,0.26012 -1.270529,0.66266 -1.948207,1.13636 -1.355328,0.9474 -2.690256,2.16607 -3.194632,3.14141 -0.133535,0.25826 -0.223943,0.48314 -0.226324,0.7121 -0.0026,0.22896 0.09387,0.44869 0.289904,0.65991 0.392033,0.42244 1.178586,0.86821 2.604479,1.62057 1.371838,0.72384 2.281687,1.24109 2.840644,1.62678 0.27951,0.19284 0.47107,0.35349 0.58653004,0.48369 0.11546,0.1302 0.15039,0.22243 0.15039,0.28939 0,0.12462 -0.0212,0.18291 -0.10128,0.24236 -0.0803,0.0594 -0.24697004,0.11436 -0.53279004,0.14056 -0.571637,0.0524 -1.598538,-2.6e-4 -3.32796,-0.13849 -2.043536,-0.16331 -3.094488,-0.24946 -3.685038,0.0258 -0.295301,0.13764 -0.456697,0.39183 -0.509534,0.71985 -0.05286,0.32802 -0.0209,0.73802 0.02945,1.27382 0.07755,0.82589 0.401664,2.17608 0.728133,3.04064 0.283078,0.74969 0.762979,1.59326 1.238674,2.25671 0.237834,0.33173 0.474265,0.61777 0.68834,0.82579 0.214047,0.20803 0.392033,0.3545 0.599942,0.3545 0.05088,0 0.0689,-0.0127 0.0925,-0.0238 0.02355,-0.011 0.04675,-0.0244 0.07339,-0.0408 0.05329,-0.0329 0.118533,-0.078 0.196374,-0.13539 0.155654,-0.11473 0.361765,-0.27783 0.60616,-0.47904 0.488765,-0.40243 1.128951,-0.95631 1.804538,-1.56528 1.047431,-0.94415 1.857641,-1.64243 2.44843104,-2.08256 0.29541,-0.22007 0.53676,-0.37536 0.71882,-0.46354 0.18206,-0.0882 0.29903,-0.0967 0.33435,-0.0837 0.0177,0.006 0.0251,0.0119 0.0382,0.0382 0.0132,0.0264 0.0259,0.0759 0.0284,0.1478 0.005,0.14383 -0.0304,0.37088 -0.10903,0.66766 -0.15722,0.59355 -0.4825,1.46969 -0.95033,2.62568 -0.34039,0.8411 -0.64019004,1.6723 -0.84955004,2.33732 -0.1047,0.33251 -0.18669,0.62328 -0.2403,0.85473 -0.0536,0.23144 -0.085,0.38982 -0.0661,0.5209 0.0575,0.40057 0.4117,0.82583 0.81855004,1.03094 0.36888,0.18595 0.96623,0.28046 1.68724,0.32402 0.72101996,0.0436 1.56117996,0.0294 2.38590996,-0.0315 0.82471,-0.0609 1.63317,-0.16891 2.29288,-0.31471 0.65971,-0.14579 1.16597,-0.31175 1.42057,-0.56637 0.0959,-0.0959 0.16296,-0.22974 0.17312,-0.39636 0.0101,-0.16662 -0.0259,-0.36641 -0.1085,-0.64027 -0.16518,-0.54771 -0.52367,-1.3976 -1.15705,-2.82412 -0.40807,-0.91907 -0.77949,-1.79783 -1.04799,-2.47168 -0.13425,-0.33693 -0.24289,-0.62288 -0.31729,-0.83561 -0.0372,-0.10636 -0.0655,-0.19436 -0.0842,-0.25993 -0.0188,-0.0656 -0.0254,-0.11775 -0.0254,-0.10904 0,-0.0826 0.0143,-0.1395 0.032,-0.1726 0.0177,-0.0331 0.0343,-0.0469 0.0687,-0.0589 0.0689,-0.0239 0.23161,-0.0101 0.46405,0.0889 0.46482,0.19801 1.18991,0.69709 2.12545,1.4826 1.49032,1.25134 2.40726,1.98196 3.0452701,2.36626 0.31901,0.19216 0.56992,0.2995 0.79479,0.33487 0.22487,0.0354 0.42195,-0.009 0.59634,-0.10232 0.29334,-0.15699 0.56092,-0.51095 0.82995,-0.98857 0.269,-0.47762 0.53035,-1.08192 0.76118,-1.7415 0.46167,-1.31915 0.80113,-2.85498 0.80409,-4.02921 0,-0.42015 -0.0175,-0.75084 -0.10078,-1.01751 -0.0832,-0.26667 -0.24633,-0.47015 -0.49763,-0.58084 -0.50265,-0.22137 -1.30191,-0.13705 -2.72491,0.0703 -1.6460301,0.23983 -2.8950801,0.39461 -3.7548101,0.44183 -0.42987,0.0236 -0.76322,0.0195 -0.99322,-0.0114 -0.23,-0.0309 -0.3406,-0.0976 -0.36018,-0.1292 -0.01,-0.0158 -0.014,-0.0275 -0.004,-0.0661 0.01,-0.0387 0.0395,-0.099 0.0946,-0.17208 0.11004,-0.14624 0.31705,-0.34194 0.61444,-0.5762 0.59476,-0.4685 1.55046,-1.09729 2.84581,-1.90272 0.9446101,-0.58734 1.5964101,-1.02956 2.0272601,-1.38751 0.43087,-0.35795 0.65363,-0.63263 0.69453,-0.91623 0.0303,-0.20981 -0.04,-0.43484 -0.16846,-0.67386 -0.12843,-0.23901 -0.31983,-0.4943 -0.55758,-0.76067 -0.47551,-0.53276 -1.1385601,-1.10724 -1.8619001,-1.63401 -0.72334,-0.52678 -1.50606,-1.00502 -2.22208,-1.34101 -0.71604,-0.33598 -1.35911,-0.53723 -1.8433,-0.47955 z m 0.031,0.26304 c 0.37883,-0.0451 1.00452,0.12936 1.70016,0.45578 0.69564,0.32642 1.46722,0.79756 2.17869,1.31568 0.71146,0.51813 1.3631301,1.08436 1.8200401,1.59629 0.22844,0.25596 0.40828,0.49852 0.52192,0.71003 0.11366,0.21152 0.157,0.3895 0.13954,0.51056 -0.0236,0.16403 -0.18942,0.40798 -0.60153,0.75035 -0.41209,0.34237 -1.0579701,0.78163 -1.9983201,1.36632 -1.29818,0.8072 -2.25714,1.43736 -2.86959,1.91978 -0.30623,0.24122 -0.5257,0.44416 -0.66196,0.62529 -0.0682,0.0906 -0.11682,0.17598 -0.13955,0.26613 -0.0228,0.0902 -0.0138,0.19017 0.0357,0.26975 0.0986,0.15918 0.29009,0.21782 0.54983,0.2527 0.25974,0.0349 0.6042,0.037 1.04283,0.0129 0.87725,-0.0482 2.12976,-0.20418 3.7785901,-0.44442 1.41706,-0.20647 2.20536,-0.25477 2.57969,-0.0899 0.18714,0.0824 0.28456,0.20174 0.3519,0.41754 0.0674,0.2158 0.0899,0.52721 0.0889,0.93845 -0.003,1.12328 -0.33536,2.64587 -0.7891,3.94239 -0.22688,0.64826 -0.484,1.24089 -0.74207,1.69912 -0.2581,0.45823 -0.52618,0.77935 -0.72401,0.88522 -0.13626,0.0729 -0.25826,0.10098 -0.43045,0.0739 -0.17219,-0.0271 -0.39642,-0.11758 -0.69969,-0.30024 -0.6065601,-0.36534 -1.5235501,-1.09246 -3.0117301,-2.34198 -0.94448,-0.79303 -1.67298,-1.30229 -2.1921,-1.52342 -0.25955,-0.11057 -0.47162,-0.15899 -0.65423,-0.0956 -0.0913,0.0317 -0.16912,0.0988 -0.21497,0.18448 -0.0458,0.0856 -0.0636,0.18536 -0.0636,0.29714 0,0.0613 0.014,0.10768 0.0351,0.18139 0.0212,0.0737 0.0511,0.16556 0.0894,0.27492 0.0765,0.21871 0.1863,0.50682 0.32142,0.84594 0.27024,0.67823 0.6423,1.55963 1.05164,2.4815 0.63256,1.42467 0.98938,2.27489 1.14564,2.79311 0.0782,0.25911 0.10459,0.43435 0.0977,0.54777 -0.007,0.11342 -0.036,0.16519 -0.0961,0.22531 -0.15896,0.15895 -0.64841,0.35319 -1.29037,0.49506 -0.64193,0.14187 -1.44116,0.24886 -2.25568,0.30903 -0.81449,0.0602 -1.64502,0.0736 -2.35023996,0.031 -0.70519,-0.0426 -1.29005,-0.14798 -1.58387,-0.2961 -0.32073,-0.16169 -0.63908004,-0.57462 -0.67593004,-0.83148 -0.005,-0.0333 0.0108,-0.20281 0.062,-0.42374 0.0512,-0.22094 0.13182,-0.50695 0.23514004,-0.83509 0.20661,-0.6563 0.5044,-1.48277 0.84233,-2.31769 0.46923,-1.15947 0.79687,-2.03894 0.96065,-2.65721 0.0819,-0.30913 0.12432,-0.55196 0.11781,-0.74465 -0.003,-0.0964 -0.0188,-0.18145 -0.0563,-0.25684 -0.0377,-0.0754 -0.10408,-0.13867 -0.18396,-0.16794 -0.1597,-0.0585 -0.3325,-0.007 -0.54105,0.0935 -0.20854,0.10101 -0.45855,0.26443 -0.76118,0.48989 -0.60528004,0.45092 -1.41795104,1.15195 -2.46755304,2.09807 -0.673074,0.6067 -1.311381,1.1582 -1.795754,1.55701 -0.2422,0.1994 -0.445876,0.36101 -0.59481,0.47077 -0.07445,0.0549 -0.135758,0.0967 -0.178276,0.12299 -0.01614,0.01 -0.02567,0.0147 -0.03514,0.0196 -0.04567,-0.003 -0.215053,-0.0866 -0.407723,-0.27388 -0.196638,-0.19107 -0.425952,-0.46793 -0.65733,-0.79065 -0.462783,-0.64544 -0.934932,-1.4775 -1.20613,-2.19574 -0.314457,-0.83278 -0.638545,-2.18813 -0.7121,-2.97139 -0.05003,-0.53286 -0.07636,-0.93269 -0.03204,-1.20768 0.04429,-0.27499 0.135308,-0.4171 0.360178,-0.52193 0.449765,-0.20965 1.510321,-0.16472 3.552243,-0.002 1.7322,0.13843 2.758201,0.19438 3.373435,0.13798 0.30764,-0.0282 0.51763004,-0.0817 0.66612004,-0.19172 0.14848,-0.11 0.20825,-0.2824 0.20825,-0.45475 0,-0.15604 -0.0777,-0.30799 -0.21704,-0.46509 -0.13932,-0.1571 -0.34493004,-0.32657 -0.63407004,-0.52607 -0.578248,-0.39899 -1.492463,-0.91724 -2.867529,-1.64279 -1.422532,-0.7506 -2.202233,-1.20911 -2.534205,-1.56683 -0.166,-0.17886 -0.220769,-0.31819 -0.219102,-0.47646 0.0026,-0.15826 0.07035,-0.34908 0.196877,-0.59376 0.456591,-0.88295 1.777523,-2.11339 3.111447,-3.04581 0.666935,-0.46621 1.337971,-0.86123 1.903232,-1.11104 0.56528,-0.24982 1.03047004,-0.33444 1.22732004,-0.2589 0.10795,0.0414 0.18936,0.096 0.28162,0.21911 0.0923,0.12309 0.19058,0.31787 0.30078,0.62322 0.22035,0.61068 0.48937,1.65689 0.91726,3.4463 0.34466996,1.44148 0.64123996,2.38165 0.93688996,2.88664 0.14779,0.2525 0.30162,0.41861 0.50641,0.43564 0.10239,0.009 0.20325,-0.0296 0.28631,-0.0935 0.0831,-0.064 0.15449,-0.15304 0.22375,-0.2651 0.0523,-0.0847 0.0868,-0.19961 0.14211,-0.38602 0.0553,-0.18641 0.12073,-0.43081 0.19222,-0.71727 0.14304,-0.57292 0.31052,-1.31416 0.46871,-2.08721 0.40751,-1.99141 0.62738,-3.02295 0.83148,-3.54087 0.10205,-0.25897 0.1945,-0.38056 0.29353,-0.44804 0.099,-0.0675 0.22511,-0.0921 0.4196,-0.11523 z m 164.0106891,0.002 c -0.20135,0.024 -0.37862,0.0515 -0.53745,0.15968 -0.15883,0.10821 -0.2789,0.28582 -0.39069,0.56948 -0.22354,0.56731 -0.4373,1.59338 -0.84489,3.58531 -0.15751,0.76963 -0.32433,1.50782 -0.46612,2.07584 -0.0709,0.28401 -0.1356,0.52555 -0.18915,0.7059 -0.0536,0.18035 -0.10729,0.31296 -0.11316,0.32246 -0.0586,0.0947 -0.11462,0.1592 -0.1602,0.1943 -0.0456,0.0351 -0.0744,0.0422 -0.10282,0.0398 -0.0568,-0.005 -0.16981,-0.0831 -0.30025,-0.30593 -0.26088,-0.44563 -0.56534,-1.38139 -0.90797,-2.8143 -0.42826,-1.79108 -0.69641,-2.83838 -0.92604,-3.47472 -0.11481,-0.31817 -0.21963,-0.53479 -0.33743,-0.69195 -0.11782,-0.15716 -0.25341,-0.25182 -0.39843,-0.30747 -0.3511,-0.13473 -0.84077,0.003 -1.42936,0.26355 -0.58862,0.26012 -1.27056,0.66266 -1.94821,1.13636 -1.35535,0.9474 -2.69028,2.16607 -3.19466,3.14141 -0.13353,0.25826 -0.22394,0.48314 -0.22632,0.7121 -0.003,0.22896 0.0939,0.44869 0.2899,0.65991 0.39204,0.42244 1.17862,0.86821 2.60448,1.62057 1.37184,0.72384 2.28169,1.24109 2.84067,1.62678 0.27948,0.19284 0.47107,0.35349 0.58653,0.48369 0.11544,0.1302 0.15037,0.22243 0.15037,0.28939 0,0.12462 -0.0212,0.18291 -0.10129,0.24236 -0.0802,0.0595 -0.24696,0.11436 -0.53279,0.14056 -0.57163,0.0524 -1.59853,-2.6e-4 -3.32795,-0.13849 -2.04351,-0.16331 -3.09446,-0.24946 -3.68504,0.0259 -0.2953,0.13764 -0.4567,0.39183 -0.50954,0.71985 -0.0529,0.32802 -0.0209,0.73802 0.0294,1.27382 0.0776,0.82588 0.40167,2.17608 0.72814,3.04064 0.28307,0.74969 0.76297,1.59326 1.23867,2.25671 0.23786,0.33173 0.47426,0.61777 0.68834,0.82579 0.21407,0.20803 0.39203,0.3545 0.59997,0.3545 0.0509,0 0.0689,-0.0127 0.0925,-0.0238 0.0235,-0.011 0.0467,-0.0244 0.0734,-0.0408 0.0533,-0.0329 0.11853,-0.078 0.19637,-0.13539 0.15568,-0.11473 0.36176,-0.27783 0.60616,-0.47904 0.48876,-0.40243 1.12895,-0.95631 1.80454,-1.56528 1.04743,-0.94415 1.85764,-1.64243 2.44843,-2.08256 0.2954,-0.22007 0.53676,-0.37536 0.71882,-0.46354 0.18206,-0.0882 0.29903,-0.0967 0.33435,-0.0837 0.0177,0.006 0.0251,0.0119 0.0382,0.0382 0.0132,0.0264 0.0259,0.0759 0.0284,0.1478 0.005,0.14383 -0.0304,0.37088 -0.10906,0.66766 -0.15721,0.59355 -0.48246,1.46969 -0.95033,2.62568 -0.34038,0.8411 -0.64018,1.6723 -0.84955,2.33732 -0.10467,0.33251 -0.18669,0.62329 -0.24029,0.85473 -0.0536,0.23144 -0.085,0.38982 -0.0661,0.5209 0.0575,0.40057 0.41169,0.82583 0.81857,1.03094 0.36886,0.18595 0.9662,0.28046 1.68722,0.32402 0.72102,0.0436 1.5612,0.0294 2.38591,-0.0315 0.8247,-0.0609 1.63316,-0.16891 2.29288,-0.31471 0.65971,-0.14579 1.16596,-0.31175 1.42057,-0.56637 0.0959,-0.0959 0.16296,-0.22974 0.17312,-0.39636 0.0103,-0.16662 -0.0259,-0.36641 -0.10851,-0.64027 -0.16518,-0.54771 -0.52366,-1.3976 -1.15705,-2.82412 -0.40806,-0.91907 -0.77949,-1.79783 -1.04799,-2.47168 -0.13424,-0.33693 -0.24286,-0.62288 -0.31728,-0.83561 -0.0372,-0.10636 -0.0655,-0.19436 -0.0842,-0.25993 -0.0188,-0.0656 -0.0254,-0.11775 -0.0254,-0.10904 0,-0.0826 0.0143,-0.13949 0.032,-0.1726 0.0177,-0.0331 0.0343,-0.047 0.0687,-0.0589 0.0689,-0.0239 0.23165,-0.0101 0.46406,0.0889 0.46482,0.198 1.18991,0.69708 2.12545,1.48259 1.49032,1.25134 2.40726,1.98197 3.0453,2.36626 0.31901,0.19216 0.56988,0.2995 0.79478,0.33487 0.22487,0.0354 0.42193,-0.009 0.59634,-0.10232 0.29332,-0.15699 0.56089,-0.51095 0.82992,-0.98857 0.269,-0.47762 0.53036,-1.08192 0.76118,-1.7415 0.4617,-1.31915 0.80113,-2.85498 0.8041,-4.02921 0,-0.42015 -0.0175,-0.75084 -0.10078,-1.01751 -0.0832,-0.26667 -0.2463,-0.47015 -0.49763,-0.58084 -0.50266,-0.22137 -1.30191,-0.13705 -2.72489,0.0703 -1.64605,0.23983 -2.8951,0.39461 -3.75484,0.44183 -0.42984,0.0236 -0.76321,0.0195 -0.99322,-0.0114 -0.23,-0.0309 -0.34059,-0.0976 -0.36017,-0.1292 -0.01,-0.0158 -0.014,-0.0275 -0.004,-0.0661 0.01,-0.0387 0.0396,-0.099 0.0946,-0.17208 0.11004,-0.14624 0.31705,-0.34194 0.61444,-0.5762 0.59476,-0.4685 1.55046,-1.09729 2.8458,-1.90272 0.94462,-0.58734 1.59642,-1.02956 2.02727,-1.38751 0.43087,-0.35795 0.65362,-0.63263 0.69453,-0.91623 0.0303,-0.20981 -0.04,-0.43484 -0.16846,-0.67386 -0.12843,-0.23901 -0.31983,-0.4943 -0.55758,-0.76067 -0.47551,-0.53276 -1.13856,-1.10724 -1.8619,-1.63401 -0.72335,-0.52678 -1.50606,-1.00502 -2.22208,-1.34101 -0.71604,-0.33598 -1.35911,-0.53723 -1.8433,-0.47955 z m 0.031,0.26304 c 0.37883,-0.0451 1.00452,0.12936 1.70016,0.45578 0.69567,0.32642 1.46722,0.79756 2.17868,1.31568 0.71147,0.51813 1.36314,1.08436 1.82005,1.59629 0.22846,0.25596 0.40827,0.49852 0.52194,0.71003 0.11364,0.21152 0.15698,0.3895 0.13951,0.51057 -0.0235,0.16402 -0.18941,0.40797 -0.6015,0.75034 -0.41212,0.34237 -1.05799,0.78163 -1.99835,1.36632 -1.29817,0.8072 -2.25713,1.43736 -2.86959,1.91978 -0.3062,0.24122 -0.5257,0.44417 -0.66196,0.62529 -0.0681,0.0906 -0.11678,0.17598 -0.13954,0.26613 -0.0228,0.0902 -0.0138,0.19017 0.0357,0.26975 0.0985,0.15917 0.29009,0.21782 0.54983,0.2527 0.25974,0.0349 0.6042,0.037 1.04283,0.0129 0.87728,-0.0482 2.12976,-0.20418 3.77859,-0.44442 1.41706,-0.20647 2.20536,-0.25477 2.57969,-0.0899 0.18716,0.0824 0.28456,0.20174 0.35192,0.41754 0.0673,0.21581 0.0899,0.52721 0.0889,0.93845 -0.003,1.12328 -0.33533,2.64587 -0.78909,3.94239 -0.22688,0.64826 -0.48398,1.24089 -0.74208,1.69912 -0.2581,0.45823 -0.52617,0.77935 -0.72398,0.88522 -0.13628,0.0729 -0.25828,0.10098 -0.43047,0.0739 -0.17219,-0.0271 -0.39643,-0.11758 -0.69969,-0.30024 -0.60656,-0.36534 -1.52355,-1.09246 -3.0117,-2.34198 -0.94451,-0.79303 -1.67302,-1.30229 -2.19213,-1.52342 -0.25955,-0.11057 -0.47162,-0.15899 -0.65421,-0.0956 -0.0913,0.0317 -0.16915,0.0988 -0.21497,0.18448 -0.0458,0.0857 -0.0636,0.18536 -0.0636,0.29714 0,0.0613 0.014,0.10768 0.0351,0.18139 0.0212,0.0737 0.0511,0.16556 0.0894,0.27492 0.0765,0.21871 0.18632,0.50682 0.32144,0.84594 0.27022,0.67824 0.64228,1.55963 1.05161,2.4815 0.63257,1.42467 0.98939,2.27489 1.14568,2.79311 0.0781,0.25911 0.10456,0.43435 0.0976,0.54777 -0.007,0.11342 -0.036,0.16519 -0.0961,0.22531 -0.15896,0.15896 -0.64841,0.35319 -1.29035,0.49506 -0.64195,0.14187 -1.44118,0.24886 -2.25567,0.30903 -0.8145,0.0602 -1.64505,0.0736 -2.35025,0.031 -0.70522,-0.0426 -1.29008,-0.14799 -1.5839,-0.2961 -0.32072,-0.16169 -0.63907,-0.57462 -0.67593,-0.83148 -0.005,-0.0333 0.0108,-0.20281 0.062,-0.42374 0.0512,-0.22094 0.13182,-0.50695 0.23514,-0.83509 0.20661,-0.6563 0.50442,-1.48277 0.84232,-2.31769 0.46924,-1.15947 0.7969,-2.03894 0.96065,-2.65721 0.0819,-0.30913 0.12433,-0.55196 0.11785,-0.74465 -0.003,-0.0964 -0.0188,-0.18145 -0.0563,-0.25684 -0.0377,-0.0754 -0.10412,-0.13867 -0.18399,-0.16794 -0.15971,-0.0586 -0.33251,-0.007 -0.54105,0.0935 -0.20854,0.10101 -0.45855,0.26444 -0.76118,0.48989 -0.60529,0.45092 -1.41795,1.15195 -2.46756,2.09807 -0.67307,0.6067 -1.31138,1.1582 -1.79575,1.55701 -0.2422,0.1994 -0.44585,0.36101 -0.59481,0.47077 -0.0745,0.0549 -0.13576,0.0967 -0.17828,0.12299 -0.0161,0.01 -0.0257,0.0147 -0.0351,0.0196 -0.0457,-0.003 -0.21503,-0.0866 -0.40773,-0.27388 -0.19663,-0.19107 -0.42592,-0.46793 -0.65733,-0.79065 -0.46278,-0.64544 -0.9349,-1.4775 -1.20613,-2.19574 -0.31445,-0.83277 -0.63852,-2.18813 -0.7121,-2.97139 -0.05,-0.53286 -0.0763,-0.93269 -0.032,-1.20768 0.0443,-0.27499 0.13531,-0.4171 0.36018,-0.52193 0.44977,-0.20965 1.51035,-0.16472 3.55224,-0.002 1.7322,0.13843 2.75821,0.19438 3.37344,0.13798 0.30763,-0.0282 0.51763,-0.0817 0.66612,-0.19172 0.14848,-0.11 0.20825,-0.2824 0.20825,-0.45475 0,-0.15604 -0.0777,-0.30799 -0.21704,-0.46509 -0.1393,-0.1571 -0.34494,-0.32657 -0.63407,-0.52607 -0.57825,-0.39899 -1.49244,-0.91724 -2.86753,-1.64279 -1.42253,-0.7506 -2.20223,-1.20911 -2.53421,-1.56683 -0.166,-0.17886 -0.22076,-0.31819 -0.2191,-0.47646 0.003,-0.15826 0.0704,-0.34908 0.19688,-0.59376 0.45659,-0.88295 1.77752,-2.11339 3.11145,-3.04581 0.66696,-0.46621 1.33797,-0.86123 1.90322,-1.11104 0.56529,-0.24982 1.03048,-0.33444 1.22733,-0.2589 0.10795,0.0414 0.18936,0.096 0.28165,0.21911 0.0923,0.12309 0.19057,0.31787 0.30075,0.62322 0.22034,0.61068 0.48937,1.65689 0.91725,3.4463 0.34468,1.44148 0.64128,2.38166 0.93689,2.88664 0.14783,0.2525 0.30166,0.41861 0.50644,0.43564 0.1024,0.009 0.20323,-0.0296 0.28628,-0.0935 0.0831,-0.064 0.15449,-0.15304 0.22376,-0.2651 0.0523,-0.0847 0.0868,-0.19961 0.14211,-0.38602 0.0553,-0.18641 0.12073,-0.43081 0.19224,-0.71727 0.14301,-0.57292 0.31049,-1.31416 0.46871,-2.08721 0.40749,-1.99141 0.62738,-3.02295 0.83146,-3.54087 0.10205,-0.25897 0.19449,-0.38056 0.29353,-0.44804 0.099,-0.0675 0.2251,-0.0921 0.4196,-0.11523 z m -163.1760791,0.8015 c -0.12573,-0.015 -0.24159,0.001 -0.34211,0.0496 -0.10049,0.0484 -0.18217,0.12289 -0.26405,0.21239 -0.0399,0.0436 -0.0608,0.0879 -0.0884,0.14831 -0.0276,0.0604 -0.057,0.13456 -0.0884,0.22221 -0.0628,0.17528 -0.13435,0.4047 -0.21187,0.67282 -0.15502,0.53626 -0.33266,1.22753 -0.50126,1.93787 -0.16859,0.71034 -0.32808,1.43933 -0.44545,2.05052 -0.11734,0.6112 -0.19378,1.09464 -0.19378,1.35547 0,0.0786 0.0101,0.15233 0.0424,0.22015 0.0322,0.0678 0.0908,0.12656 0.16121,0.15812 0.14086,0.0631 0.30305,0.0398 0.51159,-0.0243 0.41712,-0.12823 1.0459,-0.45609 2.00145,-1.0139 1.19951,-0.70023 2.09452,-1.27677 2.69544,-1.73891 0.30043,-0.23106 0.52729,-0.43319 0.6841801,-0.61288 0.15693,-0.17969 0.25374,-0.33718 0.25374,-0.50643 0,-0.19928 -0.12896,-0.38344 -0.31626,-0.60668 -0.1873001,-0.22324 -0.4460101,-0.47303 -0.7477601,-0.72812 -0.60352,-0.51018 -1.37806,-1.03959 -2.08566,-1.38338 -0.50898,-0.24728 -0.81357,-0.38291 -1.06505,-0.41289 z m -7.5179,0.2067 c -0.20087,0 -0.44466,0.0914 -0.742052,0.23358 -0.297418,0.14216 -0.639868,0.3399 -0.993219,0.56999 -0.706729,0.46018 -1.454256,1.04675 -1.948736,1.57458 -0.245612,0.26218 -0.431165,0.47163 -0.520885,0.69712 -0.08975,0.22549 -0.054,0.47198 0.117819,0.6997 0.343641,0.45542 1.172263,0.95443 2.768812,1.90427 1.236261,0.7355 2.06769104,1.1733 2.61585104,1.34669 0.27409,0.0867 0.48255,0.11633 0.65477,0.0465 0.0861,-0.0349 0.15761,-0.10135 0.19894,-0.18242 0.0413,-0.0811 0.0563,-0.17264 0.0563,-0.27233 0,-0.0777 -0.0164,-0.18081 -0.0429,-0.32815 -0.0266,-0.14733 -0.0648,-0.33213 -0.11163,-0.54312 -0.0937,-0.42196 -0.22246,-0.94783 -0.3643,-1.47794 -0.28266,-1.05628 -0.64445,-2.42741 -0.80359,-3.04478 -0.10348,-0.40153 -0.21228,-0.69354 -0.35037,-0.89865 -0.13808004,-0.20511 -0.32580004,-0.32505 -0.53485004,-0.32505 z m 7.48689,0.0558 c 0.17653,0.021 0.47638,0.14354 0.98083,0.38861 0.67953,0.33015 1.44278,0.85093 2.02983,1.34721 0.29353,0.24813 0.54325,0.49051 0.71573,0.69608 0.17248,0.20556 0.2547701,0.38661 0.2547701,0.43666 0,0.0526 -0.0501,0.17427 -0.1881001,0.33228 -0.138,0.15802 -0.35425,0.35248 -0.64648,0.57723 -0.58446,0.44949 -1.47317,1.02309 -2.66753,1.72031 -0.95051,0.55486 -1.58088,0.87731 -1.94614,0.9896 -0.18262,0.0562 -0.29218,0.0506 -0.32557,0.0357 -0.0167,-0.007 -0.0212,-0.0116 -0.03,-0.03 -0.009,-0.0184 -0.0169,-0.0539 -0.0169,-0.10697 0,-0.20408 0.0728,-0.69993 0.18915,-1.30586 0.11634,-0.60593 0.27503,-1.33198 0.44286,-2.03915 0.16785,-0.70718 0.34499,-1.39564 0.49816,-1.92547 0.0766,-0.26491 0.14705,-0.49037 0.20672,-0.6568 0.0298,-0.0832 0.0569,-0.15184 0.0796,-0.20154 0.0228,-0.0497 0.046,-0.0825 0.0434,-0.0796 0.0714,-0.078 0.12933,-0.12638 0.18347,-0.15245 0.0541,-0.0261 0.1081,-0.0364 0.19637,-0.0259 z m 164.0726691,0.002 c -0.12573,-0.015 -0.24159,0.001 -0.34208,0.0496 -0.10051,0.0484 -0.18219,0.1229 -0.26408,0.21239 -0.0399,0.0436 -0.0608,0.0879 -0.0884,0.14831 -0.0276,0.0604 -0.0569,0.13457 -0.0884,0.22221 -0.0628,0.17529 -0.13435,0.4047 -0.21185,0.67283 -0.15502,0.53625 -0.33269,1.22753 -0.50128,1.93786 -0.16857,0.71034 -0.32808,1.43933 -0.44545,2.05053 -0.11735,0.61119 -0.19378,1.09463 -0.19378,1.35547 0,0.0786 0.01,0.15232 0.0424,0.22014 0.0322,0.0678 0.0908,0.12656 0.16121,0.15813 0.14089,0.0631 0.30306,0.0398 0.5116,-0.0243 0.41712,-0.12823 1.0459,-0.45609 2.00144,-1.01389 1.19954,-0.70023 2.09455,-1.27677 2.69544,-1.73891 0.30047,-0.23107 0.52729,-0.4332 0.68419,-0.61289 0.15692,-0.17968 0.25374,-0.33718 0.25374,-0.50642 0,-0.19929 -0.12896,-0.38345 -0.31626,-0.60669 -0.1873,-0.22323 -0.44598,-0.47303 -0.74777,-0.72812 -0.60351,-0.51018 -1.37803,-1.03959 -2.08565,-1.38337 -0.50898,-0.24729 -0.81357,-0.38292 -1.06506,-0.4129 z m -171.5595591,0.20671 c 0.11874,0 0.20809,0.0483 0.31575,0.20825 0.10766004,0.15991 0.21331004,0.42963 0.31316004,0.81701 0.15971,0.61956 0.52176,1.98982 0.8046,3.04684 0.14089,0.52654 0.26908,1.04983 0.36174,1.46709 0.0463,0.20863 0.0834,0.39083 0.10903,0.53279 0.0257,0.14196 0.0388,0.2505 0.0388,0.28112 0,0.0722 -0.0122,0.12252 -0.0274,0.15244 -0.0153,0.0299 -0.0301,0.0435 -0.0631,0.0568 -0.0659,0.0267 -0.22646,0.0255 -0.47543,-0.0532 -0.49792,-0.1575 -1.32921004,-0.58962 -2.56005404,-1.32188 -1.594988,-0.94893 -2.42234,-1.4781 -2.69285,-1.83658 -0.135255,-0.17925 -0.145812,-0.28632 -0.08371,-0.44235 0.0621,-0.15604 0.226722,-0.35616 0.46818,-0.61392 0.470059,-0.50178 1.208326,-1.08328 1.900159,-1.53376 0.345889,-0.22523 0.680852,-0.41846 0.963242,-0.55345 0.282383,-0.13499 0.520403,-0.20722 0.627853,-0.20722 z m 164.0416891,0 c -0.2009,0 -0.44468,0.0914 -0.74207,0.23357 -0.2974,0.14216 -0.63987,0.3399 -0.99322,0.56999 -0.70673,0.46019 -1.45426,1.04676 -1.94874,1.57459 -0.24561,0.26218 -0.43116,0.47162 -0.52089,0.69711 -0.0897,0.22549 -0.054,0.47199 0.11782,0.6997 0.34364,0.45543 1.17229,0.95444 2.76882,1.90428 1.23626,0.73549 2.06771,1.17329 2.61588,1.34668 0.27408,0.0867 0.48252,0.11633 0.65474,0.0465 0.0861,-0.0349 0.15761,-0.10135 0.19894,-0.18241 0.0414,-0.0811 0.0563,-0.17265 0.0563,-0.27234 0,-0.0777 -0.0164,-0.18081 -0.0429,-0.32814 -0.0266,-0.14734 -0.0648,-0.33214 -0.11163,-0.54313 -0.0937,-0.42196 -0.22246,-0.94783 -0.36431,-1.47794 -0.28265,-1.05627 -0.64444,-2.42741 -0.80356,-3.04478 -0.10351,-0.40153 -0.21228,-0.69354 -0.35036,-0.89865 -0.13809,-0.20511 -0.32584,-0.32504 -0.53486,-0.32504 z m 7.48686,0.0558 c 0.17653,0.021 0.47641,0.14353 0.98084,0.3886 0.67953,0.33015 1.44277,0.85094 2.02986,1.34721 0.29353,0.24814 0.54324,0.49052 0.7157,0.69608 0.17248,0.20557 0.25476,0.38661 0.25476,0.43667 0,0.0526 -0.0501,0.17426 -0.18809,0.33228 -0.13798,0.15801 -0.35425,0.35247 -0.64648,0.57722 -0.58447,0.44949 -1.47318,1.02309 -2.66753,1.72031 -0.95049,0.55486 -1.58089,0.87731 -1.94614,0.9896 -0.18262,0.0562 -0.29218,0.0506 -0.32555,0.0357 -0.0167,-0.007 -0.0212,-0.0116 -0.03,-0.03 -0.009,-0.0184 -0.0169,-0.0539 -0.0169,-0.10697 0,-0.20408 0.0728,-0.69994 0.18915,-1.30587 0.11634,-0.60592 0.27501,-1.33197 0.44286,-2.03915 0.16783,-0.70717 0.34499,-1.39564 0.49816,-1.92546 0.0766,-0.26491 0.14705,-0.49038 0.20672,-0.65681 0.0298,-0.0832 0.0569,-0.15183 0.0796,-0.20154 0.0228,-0.0497 0.046,-0.0824 0.0434,-0.0796 0.0714,-0.078 0.1293,-0.12638 0.18346,-0.15244 0.0541,-0.0261 0.10811,-0.0364 0.19635,-0.0258 z m -7.48686,0.20877 c 0.11872,0 0.2081,0.0483 0.31573,0.20825 0.10766,0.15991 0.21331,0.42963 0.31316,0.81701 0.1597,0.61956 0.52176,1.98982 0.8046,3.04684 0.14092,0.52654 0.26908,1.04984 0.36174,1.4671 0.0463,0.20863 0.0834,0.39082 0.10903,0.53278 0.0257,0.14196 0.0388,0.2505 0.0388,0.28112 0,0.0721 -0.0122,0.12253 -0.0274,0.15244 -0.0154,0.0299 -0.0301,0.0435 -0.063,0.0568 -0.0659,0.0267 -0.22646,0.0255 -0.47543,-0.0532 -0.49792,-0.1575 -1.32922,-0.58962 -2.56003,-1.32188 -1.59501,-0.94893 -2.42237,-1.4781 -2.69288,-1.83658 -0.13523,-0.17924 -0.14581,-0.28632 -0.0837,-0.44235 0.0621,-0.15603 0.22672,-0.35615 0.46821,-0.61392 0.47005,-0.50177 1.20832,-1.08328 1.90013,-1.53375 0.34591,-0.22524 0.68085,-0.41847 0.96324,-0.55346 0.28242,-0.13499 0.52043,-0.20722 0.62788,-0.20722 z M 2.5171309,144.47955 c -0.15737,-0.002 -0.31292,0.0208 -0.46096,0.0682 -0.59216,0.18983 -1.06038996,0.76528 -1.06038996,1.57303 0,0.72482 0.40197996,1.26004 0.94100996,1.46503 0.53907,0.20499 1.20952,0.0819 1.7322,-0.4408 0.32404,-0.32402 0.51486,-0.60484 0.54002,-0.92036 0.0251,-0.31552 -0.11766,-0.6276 -0.385,-1.00924 -0.34671,-0.49501 -0.83481,-0.72949 -1.30688,-0.73587 z M 166.5588,144.74413 c -0.15735,-0.002 -0.3129,0.0208 -0.46096,0.0682 -0.59216,0.18983 -1.0604,0.76528 -1.0604,1.57304 0,0.72482 0.40198,1.26003 0.94105,1.46502 0.53903,0.20499 1.20949,0.0819 1.73217,-0.4408 0.32401,-0.32402 0.51488,-0.60483 0.54002,-0.92036 0.0251,-0.31552 -0.11766,-0.62759 -0.38497,-1.00924 -0.34674,-0.495 -0.83484,-0.72948 -1.30691,-0.73587 z m -164.4214991,0.0558 c 0.48503,-0.15548 1.06571,-0.0101 1.47021,0.56741 0.25355,0.36201 0.3556,0.61506 0.33795,0.83613 -0.0177,0.22106 -0.15709,0.44802 -0.46353,0.75447 -0.45836,0.45837 -1.01171,0.54742 -1.45108,0.38034 -0.43936,-0.16708 -0.77049,-0.58818 -0.77049,-1.2175 0,-0.70759 0.39193,-1.16536 0.87694,-1.32085 z m 164.0416891,0.26459 c 0.48501,-0.15549 1.06571,-0.0101 1.47018,0.5674 0.25358,0.36201 0.3556,0.61506 0.33798,0.83613 -0.0177,0.22106 -0.15711,0.44803 -0.46355,0.75447 -0.45836,0.45837 -1.01169,0.54743 -1.45108,0.38034 -0.43937,-0.16708 -0.77049,-0.58817 -0.77049,-1.21749 0,-0.7076 0.39192,-1.16537 0.87696,-1.32085 z m -153.878469,0.70951 c -0.0642,-0.003 -0.14406,-0.002 -0.24082,0.003 -0.19354,0.008 -0.45344,0.0295 -0.76377,0.0615 -0.62072,0.0641 -1.4421101,0.17156 -2.3171701,0.30748 -0.87307,0.1356 -1.67616,0.25992 -2.26706,0.35088 -0.29543,0.0455 -0.53768,0.0824 -0.709,0.10852 -0.0857,0.013 -0.15372,0.0234 -0.20153,0.0305 -0.0478,0.007 -0.0874,0.0125 -0.076,0.0114 -0.0468,0.005 -0.0872,0.0348 -0.10697,0.0605 -0.0198,0.0257 -0.0272,0.0481 -0.0331,0.0687 -0.0116,0.0412 -0.014,0.0789 -0.014,0.12196 0,0.086 0.013,0.18964 0.0382,0.30334 0.0307,0.13855 0.12626,0.26023 0.26614,0.42374 0.13986,0.16351 0.32795,0.35491 0.55036,0.56534 0.44477,0.42087 1.02672,0.91578 1.62264,1.38803 0.59589,0.47225 1.20542,0.92141 1.70582,1.24954 0.2502201,0.16406 0.4727901,0.29769 0.6563001,0.39015 0.18352,0.0925 0.31065,0.15752 0.45836,0.13746 0.20866,-0.0283 0.40519,-0.17014 0.59635,-0.37155 0.19119,-0.20141 0.37396,-0.46907 0.52297,-0.77411 0.28329,-0.5799 0.50573,-1.58151 0.62011,-2.48254 0.0572,-0.45051 0.0862,-0.87364 0.077,-1.20561 -0.005,-0.16599 -0.0185,-0.30892 -0.046,-0.42633 -0.0275,-0.11741 -0.06,-0.22011 -0.16433,-0.2837 -0.0748,-0.0456 -0.11049,-0.0349 -0.17466,-0.0377 z m 0.0367,0.26355 c -0.0122,-0.007 0.0241,0.0296 0.045,0.11834 0.0209,0.0887 0.0345,0.21807 0.0387,0.3731 0.009,0.31009 -0.019,0.72387 -0.0749,1.16479 -0.11197,0.88184 -0.34187,1.8811 -0.59531,2.39986 -0.1382,0.28286 -0.30914,0.53062 -0.4775,0.70796 -0.16833,0.17735 -0.3375,0.27809 -0.43976,0.29198 0.003,-2.5e-4 -0.13536,-0.0267 -0.30385,-0.11163 -0.16849,-0.0849 -0.38536,-0.21446 -0.6304501,-0.37517 -0.49017,-0.32141 -1.09514,-0.76717 -1.68621,-1.23558 -0.59106,-0.46841 -1.16877,-0.9602 -1.60507,-1.37304 -0.21815,-0.20643 -0.40122,-0.39321 -0.53123,-0.54519 -0.13002,-0.15197 -0.20304,-0.28322 -0.20876,-0.30903 -0.0217,-0.0985 -0.032,-0.18897 -0.032,-0.24597 0.003,-2.7e-4 0.003,-1.4e-4 0.005,-5.3e-4 0.0483,-0.007 0.11626,-0.0179 0.20204,-0.031 0.17161,-0.0261 0.41399,-0.063 0.70953,-0.10852 0.59105,-0.091 1.39438,-0.21526 2.26756,-0.35088 0.87117,-0.13531 1.6894201,-0.24249 2.3037301,-0.30592 0.30715,-0.0317 0.5634,-0.0525 0.74776,-0.0605 0.0922,-0.004 0.16664,-0.004 0.21757,-0.002 0.0509,0.002 0.0914,0.0251 0.0486,-10e-4 z m 164.004999,0.001 c -0.0642,-0.003 -0.14404,-0.002 -0.24082,0.003 -0.19352,0.008 -0.45342,0.0294 -0.76378,0.0615 -0.62068,0.0641 -1.44211,0.17156 -2.31716,0.30748 -0.87308,0.1356 -1.67617,0.25991 -2.26706,0.35088 -0.29543,0.0455 -0.53766,0.0824 -0.709,0.10852 -0.0856,0.013 -0.15373,0.0234 -0.20154,0.0305 -0.0478,0.007 -0.0874,0.0125 -0.076,0.0114 -0.0468,0.005 -0.0872,0.0348 -0.10697,0.0605 -0.0198,0.0257 -0.0272,0.0482 -0.0331,0.0687 -0.0117,0.0412 -0.014,0.0789 -0.014,0.12195 0,0.086 0.013,0.18964 0.0382,0.30334 0.0307,0.13856 0.12626,0.26024 0.26614,0.42375 0.13986,0.16351 0.32795,0.35491 0.55036,0.56534 0.44476,0.42087 1.02672,0.91578 1.62264,1.38803 0.59589,0.47225 1.20541,0.92141 1.70582,1.24953 0.25021,0.16407 0.47278,0.29769 0.6563,0.39016 0.18351,0.0925 0.31064,0.15752 0.45836,0.13746 0.20863,-0.0283 0.40518,-0.17015 0.59635,-0.37155 0.19118,-0.20141 0.37396,-0.46908 0.52297,-0.77412 0.28329,-0.57989 0.50573,-1.5815 0.62011,-2.48253 0.0572,-0.45052 0.0862,-0.87364 0.077,-1.20561 -0.005,-0.16599 -0.0185,-0.30892 -0.046,-0.42633 -0.0275,-0.11742 -0.06,-0.22011 -0.16433,-0.28371 -0.0747,-0.0456 -0.11051,-0.0348 -0.17465,-0.0377 z m 0.0367,0.26355 c -0.0122,-0.007 0.0241,0.0296 0.045,0.11834 0.0209,0.0887 0.0344,0.21806 0.0388,0.3731 0.008,0.31008 -0.019,0.72387 -0.0749,1.16479 -0.11197,0.88184 -0.34189,1.8811 -0.59531,2.39985 -0.13819,0.28286 -0.30917,0.53062 -0.47749,0.70797 -0.16836,0.17735 -0.33753,0.27809 -0.43977,0.29197 0.003,-2.4e-4 -0.13539,-0.0267 -0.30387,-0.11162 -0.16849,-0.0849 -0.38537,-0.21446 -0.63045,-0.37517 -0.49017,-0.32141 -1.09514,-0.76718 -1.68619,-1.23558 -0.59108,-0.46841 -1.1688,-0.9602 -1.60507,-1.37305 -0.21815,-0.20642 -0.40124,-0.39321 -0.53126,-0.54518 -0.12999,-0.15198 -0.20304,-0.28322 -0.20875,-0.30903 -0.0217,-0.0985 -0.032,-0.18897 -0.032,-0.24598 0.003,-2.6e-4 0.003,-1.4e-4 0.005,-5.3e-4 0.0483,-0.007 0.11626,-0.0179 0.20203,-0.031 0.17161,-0.0261 0.414,-0.063 0.70954,-0.10852 0.59105,-0.091 1.39438,-0.21526 2.26756,-0.35088 0.87116,-0.13532 1.68941,-0.2425 2.30372,-0.30593 0.30716,-0.0317 0.56341,-0.0525 0.74777,-0.0605 0.0922,-0.004 0.16663,-0.004 0.21757,-0.002 0.0509,0.002 0.0914,0.0251 0.0486,-0.001 z M -6.3019301,146.4277 c -0.489955,0.009 -0.82669,0.0588 -1.059365,0.22118 -0.232701,0.16234 -0.316018,0.4368 -0.303874,0.7767 0.01217,0.3399 0.104775,0.76946 0.23151,1.33583 0.185738,0.82992 0.486172,1.61013 0.816505,2.19057 0.165153,0.29021 0.337555,0.5305 0.51263,0.70435 0.175048,0.17385 0.356341,0.2899 0.553958,0.2899 0.07096,0 0.118957,-0.0223 0.181901,-0.0517 0.06294,-0.0294 0.134673,-0.07 0.217038,-0.12092 0.164729,-0.10191 0.370522,-0.24599 0.606689,-0.42323 0.472308,-0.35447 1.064366,-0.84121 1.665526,-1.37666 1.093233,-0.97374 1.759293,-1.63063 2.08050304,-2.10323 0.1606,-0.2363 0.24452,-0.43256 0.2191,-0.62063 -0.0254,-0.18808 -0.17738,-0.32153 -0.37103,-0.39585 -0.088,-0.0338 -0.20799004,-0.0501 -0.40412004,-0.077 -0.19614,-0.0268 -0.45347,-0.0562 -0.754992,-0.0863 -0.603012,-0.0603 -1.382633,-0.12407 -2.195221,-0.17674 -0.858044,-0.0556 -1.506802,-0.0949 -1.996758,-0.0863 z m 0.0048,0.26459 c 0.471567,-0.008 1.117679,0.0302 1.975061,0.0858 0.809731,0.0525 1.587024,0.11632 2.185909,0.17622 0.299461,0.03 0.554781,0.0586 0.745701,0.0848 0.19093,0.0261 0.33261,0.0572 0.34521,0.062 0.14779004,0.0567 0.19330004,0.10839 0.20359004,0.18448 0.0103,0.0761 -0.0313,0.22379 -0.17571004,0.43615 -0.28866,0.42473 -0.948955,1.08501 -2.037584,2.05466 -0.596159,0.53099 -1.184248,1.01378 -1.648486,1.36219 -0.232119,0.1742 -0.433467,0.3153 -0.587058,0.41031 -0.07678,0.0475 -0.142028,0.0835 -0.190156,0.10593 -0.04813,0.0225 -0.08483,0.0269 -0.06977,0.0269 -0.08461,0 -0.21844,-0.0644 -0.36793,-0.21291 -0.149489,-0.14848 -0.311758,-0.37172 -0.468709,-0.64751 -0.313875,-0.55156 -0.607933,-1.31231 -0.788062,-2.11718 -0.126444,-0.56499 -0.215185,-0.98957 -0.225821,-1.28778 -0.01058,-0.29821 0.04178,-0.4461 0.191187,-0.55035 0.149437,-0.10425 0.441034,-0.16538 0.912628,-0.17363 z m 164.0370101,0 c -0.48995,0.009 -0.82666,0.0588 -1.05936,0.22117 -0.2327,0.16235 -0.316,0.4368 -0.30388,0.7767 0.0122,0.3399 0.10478,0.76946 0.23151,1.33583 0.18574,0.82992 0.48617,1.61013 0.81651,2.19057 0.16515,0.29022 0.33758,0.5305 0.51263,0.70435 0.17505,0.17385 0.35634,0.2899 0.55396,0.2899 0.071,0 0.11895,-0.0223 0.1819,-0.0517 0.063,-0.0294 0.13467,-0.07 0.21703,-0.12093 0.16473,-0.10191 0.37053,-0.24599 0.60669,-0.42323 0.47231,-0.35447 1.06437,-0.84121 1.66553,-1.37665 1.09323,-0.97374 1.75929,-1.63063 2.0805,-2.10324 0.1606,-0.2363 0.24453,-0.43255 0.2191,-0.62063 -0.0254,-0.18808 -0.17738,-0.32153 -0.37103,-0.39584 -0.0881,-0.0338 -0.20796,-0.0502 -0.40409,-0.077 -0.19617,-0.0268 -0.4535,-0.0561 -0.75502,-0.0863 -0.60301,-0.0603 -1.38263,-0.12407 -2.19519,-0.17673 -0.85805,-0.0556 -1.50683,-0.0949 -1.99679,-0.0863 z m 0.005,0.26458 c 0.47157,-0.008 1.11768,0.0302 1.97507,0.0858 0.80973,0.0525 1.58702,0.11632 2.1859,0.17622 0.29946,0.03 0.55478,0.0586 0.74571,0.0848 0.19092,0.0261 0.3326,0.0572 0.3452,0.062 0.14779,0.0567 0.1933,0.10839 0.20359,0.18449 0.0103,0.0761 -0.0314,0.22378 -0.17571,0.43615 -0.28866,0.42472 -0.94895,1.08501 -2.03758,2.05465 -0.59616,0.53099 -1.18425,1.01379 -1.64848,1.36219 -0.23212,0.1742 -0.43347,0.3153 -0.58704,0.41031 -0.0768,0.0475 -0.14205,0.0835 -0.19018,0.10594 -0.0481,0.0225 -0.0848,0.0269 -0.0698,0.0269 -0.0846,0 -0.21844,-0.0644 -0.36793,-0.21291 -0.14949,-0.14847 -0.31176,-0.37172 -0.46871,-0.6475 -0.31387,-0.55157 -0.60793,-1.31231 -0.78806,-2.11719 -0.12644,-0.56498 -0.21518,-0.98956 -0.22582,-1.28777 -0.0106,-0.29821 0.0418,-0.4461 0.19119,-0.55036 0.14943,-0.10425 0.44106,-0.16537 0.91262,-0.17363 z M 2.7538209,149.20221 c -0.0873,-0.0252 -0.18129,-0.0152 -0.25942,0.0196 -0.0781,0.0348 -0.14346,0.0895 -0.20619,0.15503 -0.0766,0.08 -0.14455,0.2045 -0.24546,0.39688 -0.10091,0.19237 -0.22288,0.44395 -0.35811,0.73845 -0.27046,0.58902 -0.59439,1.34986 -0.90846996,2.14199 -0.55809,1.4075 -0.84191,2.12216 -0.92658,2.5678 -0.0423,0.22283 -0.0332,0.39139 0.0367,0.52917 0.0699,0.13778 0.18386,0.22513 0.31263,0.32246 0.22434,0.16956 0.50155,0.26736 0.91725996,0.30283 0.41571,0.0355 0.97735,0.0141 1.80869,-0.0517 0.5874,-0.0465 1.1593,-0.12724 1.61229,-0.22118 0.22651,-0.047 0.42313,-0.0974 0.57931,-0.14934 0.15618,-0.052 0.2689,-0.0946 0.35242,-0.17777 0.0885,-0.0881 0.15034,-0.2087 0.1664,-0.35346 0.0161,-0.14477 -0.006,-0.31235 -0.0636,-0.52969 -0.11454,-0.43468 -0.37333,-1.07357 -0.82167,-2.09703 -0.73329,-1.67401 -1.18022,-2.63523 -1.51566,-3.14038 -0.16772,-0.25257 -0.30599,-0.40336 -0.48059,-0.45371 z m -0.0734,0.25425 c 0.0592,0.0171 0.17931,0.11352 0.33386,0.34623 0.30906,0.46543 0.76112,1.42784 1.49344,3.09956 0.44704,1.02051 0.70268,1.65765 0.80822,2.05827 0.0528,0.2003 0.0667,0.34006 0.0563,0.43356 -0.0103,0.0935 -0.037,0.14217 -0.0899,0.19482 -0.0111,0.0111 -0.10846,0.0677 -0.24958,0.11472 -0.14113,0.047 -0.32975,0.0956 -0.54933,0.14108 -0.43916,0.0911 -1.00301,0.17091 -1.57975,0.21653 -0.8264,0.0653 -1.37922,0.0846 -1.76527,0.0517 -0.38605996,-0.0329 -0.59766996,-0.11246 -0.77977996,-0.25011 -0.12544,-0.0948 -0.20082,-0.1603 -0.2367,-0.231 -0.0358,-0.0707 -0.0492,-0.16655 -0.0124,-0.36018 0.0736,-0.38727 0.35465,-1.11311 0.91260996,-2.52026 0.31247,-0.78804 0.63542,-1.54512 0.90331,-2.12855 0.13393,-0.29172 0.25395,-0.54027 0.35139,-0.72606 0.0975,-0.18579 0.18405,-0.31757 0.20259,-0.33693 0.0489,-0.051 0.0917,-0.0827 0.12298,-0.0966 0.0312,-0.0139 0.0485,-0.0152 0.078,-0.007 z m 164.1150691,0.0103 c -0.0873,-0.0252 -0.1813,-0.0152 -0.25943,0.0196 -0.0781,0.0348 -0.14345,0.0895 -0.20619,0.15503 -0.0766,0.08 -0.14454,0.20449 -0.24545,0.39687 -0.10091,0.19238 -0.22289,0.44395 -0.35811,0.73846 -0.27046,0.58902 -0.59439,1.34985 -0.90848,2.14199 -0.55811,1.40749 -0.8419,2.12215 -0.92657,2.5678 -0.0423,0.22282 -0.0332,0.39138 0.0367,0.52916 0.0699,0.13779 0.18386,0.22513 0.31263,0.32246 0.22437,0.16956 0.50154,0.26736 0.91726,0.30283 0.41574,0.0355 0.97734,0.0141 1.80869,-0.0517 0.5874,-0.0464 1.1593,-0.12724 1.61229,-0.22117 0.22651,-0.047 0.42312,-0.0974 0.57931,-0.14935 0.15618,-0.052 0.26892,-0.0946 0.35242,-0.17776 0.0885,-0.0881 0.15034,-0.20871 0.1664,-0.35347 0.0161,-0.14476 -0.006,-0.31234 -0.0636,-0.52968 -0.11453,-0.43469 -0.37332,-1.07357 -0.82166,-2.09704 -0.73329,-1.67401 -1.18023,-2.63522 -1.51566,-3.14037 -0.16772,-0.25258 -0.306,-0.40336 -0.48059,-0.45372 z m -0.0734,0.25424 c 0.0592,0.0171 0.17928,0.11352 0.33382,0.34624 0.30906,0.46543 0.76116,1.42783 1.49344,3.09955 0.44704,1.02052 0.70268,1.65765 0.80823,2.05827 0.0528,0.20031 0.0667,0.34007 0.0563,0.43356 -0.0103,0.0935 -0.037,0.14218 -0.0899,0.19483 -0.0111,0.0111 -0.10845,0.0677 -0.24958,0.11472 -0.14113,0.047 -0.32975,0.0956 -0.54933,0.14107 -0.43912,0.0911 -1.00248,0.17092 -1.57921,0.21653 -0.8264,0.0653 -1.37973,0.0846 -1.76581,0.0517 -0.38605,-0.0329 -0.59766,-0.11246 -0.77978,-0.25011 -0.12544,-0.0948 -0.20082,-0.16029 -0.23669,-0.23099 -0.0358,-0.0707 -0.0492,-0.16655 -0.0124,-0.36019 0.0736,-0.38727 0.35462,-1.11311 0.9126,-2.52026 0.31247,-0.78804 0.63543,-1.54512 0.90329,-2.12855 0.13396,-0.29172 0.25395,-0.54026 0.35142,-0.72605 0.0974,-0.18579 0.18404,-0.31758 0.20256,-0.33693 0.0489,-0.0511 0.0917,-0.0827 0.12298,-0.0966 0.0312,-0.0139 0.0485,-0.0152 0.0781,-0.007 z"
       id="path7476"
 />
  </g>
</svg>
