<?xml version="1.0" encoding="UTF-8" standalone="no"?>
<!-- Created with Inkscape (http://www.inkscape.org/) -->

<svg
   xmlns:dc="http://purl.org/dc/elements/1.1/"
   xmlns:cc="http://creativecommons.org/ns#"
   xmlns:rdf="http://www.w3.org/1999/02/22-rdf-syntax-ns#"
   xmlns:svg="http://www.w3.org/2000/svg"
   xmlns="http://www.w3.org/2000/svg"
   xmlns:sodipodi="http://sodipodi.sourceforge.net/DTD/sodipodi-0.dtd"
   xmlns:inkscape="http://www.inkscape.org/namespaces/inkscape"
   width="27.654751mm"
   height="22.468748mm"
   viewBox="0 0 27.65475 22.468748"
   version="1.1"
   id="svg7765"
   inkscape:version="0.92.3 (2405546, 2018-03-11)"
   sodipodi:docname="car-tank.svg">
  <defs
     id="defs7759" />
  <sodipodi:namedview
     id="base"
     pagecolor="#ffffff"
     bordercolor="#666666"
     borderopacity="1.0"
     inkscape:pageopacity="0.0"
     inkscape:pageshadow="2"
     inkscape:zoom="3.959798"
     inkscape:cx="73.422864"
     inkscape:cy="18.550467"
     inkscape:document-units="mm"
     inkscape:current-layer="layer1"
     showgrid="false"
     inkscape:window-width="1326"
     inkscape:window-height="1041"
     inkscape:window-x="0"
     inkscape:window-y="18"
     inkscape:window-maximized="0" />
  <metadata
     id="metadata7762">
    <rdf:RDF>
      <cc:Work
         rdf:about="">
        <dc:format>image/svg+xml</dc:format>
        <dc:type
           rdf:resource="http://purl.org/dc/dcmitype/StillImage" />
        <dc:title></dc:title>
      </cc:Work>
    </rdf:RDF>
  </metadata>
  <g
     inkscape:label="Layer 1"
     inkscape:groupmode="layer"
     id="layer1"
     transform="translate(-37.14409,-86.547642)">
    <path
       style="color:#000000;font-style:normal;font-variant:normal;font-weight:normal;font-stretch:normal;font-size:medium;line-height:normal;font-family:sans-serif;font-variant-ligatures:normal;font-variant-position:normal;font-variant-caps:normal;font-variant-numeric:normal;font-variant-alternates:normal;font-feature-settings:normal;text-indent:0;text-align:start;text-decoration:none;text-decoration-line:none;text-decoration-style:solid;text-decoration-color:#000000;letter-spacing:normal;word-spacing:normal;text-transform:none;writing-mode:lr-tb;direction:ltr;text-orientation:mixed;dominant-baseline:auto;baseline-shift:baseline;text-anchor:start;white-space:normal;shape-padding:0;clip-rule:nonzero;display:inline;overflow:visible;visibility:visible;opacity:1;isolation:auto;mix-blend-mode:normal;color-interpolation:sRGB;color-interpolation-filters:linearRGB;solid-color:#000000;solid-opacity:1;vector-effect:none;fill-opacity:1;fill-rule:nonzero;stroke:none;stroke-width:0.26458332;stroke-linecap:butt;stroke-linejoin:miter;stroke-miterlimit:4;stroke-dasharray:none;stroke-dashoffset:0;stroke-opacity:1;color-rendering:auto;image-rendering:auto;shape-rendering:auto;text-rendering:auto;enable-background:accumulate"
       d="m 54.499182,86.566105 -2.006597,0.08215 0.101285,4.270534 c 0.04702,1.979347 0.06455,3.019874 0.0083,3.579627 -0.02814,0.279876 -0.07489,0.43434 -0.131776,0.5266 -0.05689,0.09226 -0.127481,0.138933 -0.252182,0.205661 -0.03684,0.01958 -0.26198,0.07445 -0.597895,0.110066 -0.335917,0.03564 -0.797864,0.06641 -1.377177,0.09096 -1.158624,0.04908 -2.787478,0.0744 -4.835364,0.0744 -3.162199,0 -4.742124,0 -5.634281,0.08062 -0.892156,0.08123 -1.129252,0.274426 -1.473813,0.593778 -0.438521,0.4064 -0.699461,0.71845 -0.842841,1.483625 -0.143383,0.765148 -0.192366,1.991228 -0.269751,4.320144 -0.07159,2.1545 -0.07019,3.40889 0.132292,4.29379 0.202475,0.88489 0.62108,1.3899 1.327565,1.98437 l 0.895554,0.75396 11.691276,-0.0744 11.702129,-0.0744 0.934827,-1.08209 0.928108,-1.07334 v -4.38369 c 0,-3.13452 -0.05624,-4.821106 -0.71882,-5.770193 -0.331287,-0.474557 -0.818566,-0.742791 -1.481046,-0.884714 -0.66248,-0.141922 -1.507397,-0.167428 -2.602942,-0.167428 -0.875186,0 -1.531381,-0.0026 -2.014347,-0.05477 -0.482967,-0.05281 -0.782449,-0.155072 -0.973584,-0.334857 -0.191135,-0.17981 -0.297093,-0.455903 -0.352952,-0.90797 -0.05586,-0.452041 -0.05839,-1.069155 -0.05839,-1.89238 0,-1.360857 0.146724,-3.021541 0.309541,-3.630268 0.117917,-0.440875 0.186505,-0.795761 0.180869,-1.091406 -0.0056,-0.295646 -0.09563,-0.542317 -0.291457,-0.710565 -0.391641,-0.336471 -1.099566,-0.366845 -2.296499,-0.317791 z m 0.01085,0.264054 c 1.185039,-0.04855 1.847363,0.02619 2.113566,0.254767 0.133103,0.114353 0.194201,0.265404 0.198956,0.514694 0.0048,0.24929 -0.05685,0.586687 -0.172083,1.017508 -0.182565,0.682599 -0.318328,2.319946 -0.318328,3.699007 0,0.823648 0.0013,1.44526 0.06046,1.92495 0.05927,0.479663 0.179922,0.828543 0.43408,1.06762 0.254159,0.239078 0.618504,0.350176 1.12603,0.405659 0.507529,0.05551 1.167741,0.05633 2.043287,0.05633 1.091261,0 1.923926,0.02826 2.547131,0.161766 0.623205,0.133509 1.030261,0.362427 1.319817,0.777214 0.579112,0.829522 0.671277,2.488433 0.671277,5.618776 v 4.2855 l -0.863513,0.99891 -0.85628,0.99065 -11.582239,0.0739 -11.593608,0.0739 -0.821655,-0.69144 c -0.690692,-0.58118 -1.049531,-1.00954 -1.239716,-1.8407 -0.190188,-0.83119 -0.197043,-2.07531 -0.125574,-4.22611 0.07736,-2.328175 0.129278,-3.555022 0.265099,-4.279848 0.135822,-0.724799 0.332457,-0.939641 0.762744,-1.338421 0.344358,-0.319141 0.454157,-0.445876 1.317749,-0.52451 0.863592,-0.07861 2.448319,-0.07959 5.610511,-0.07959 2.050095,0 3.681537,-0.02566 4.846733,-0.07493 0.582596,-0.02461 1.048276,-0.05482 1.393714,-0.09147 0.345437,-0.03662 0.555767,-0.06548 0.695047,-0.140044 0.135374,-0.07244 0.262305,-0.154067 0.352433,-0.300223 0.09013,-0.146182 0.139496,-0.34036 0.1695,-0.638731 0.06,-0.596741 0.04031,-1.632823 -0.0067,-3.6127 l -0.09508,-4.010607 z m 0.102319,0.209285 c -0.710506,0 -1.208505,0.08991 -1.482595,0.299217 -0.137046,0.104643 -0.215146,0.271622 -0.175183,0.433573 0.03996,0.161925 0.164221,0.300911 0.355534,0.440796 0.08179,0.0598 0.13603,0.120412 0.186034,0.244951 0.05,0.124513 0.09018,0.315225 0.115755,0.608727 0.05115,0.587058 0.04751,1.580621 0.0155,3.296444 l -0.07132,3.80701 -6.922575,0.129699 c -3.189872,0.05985 -4.964893,0.104352 -6.012553,0.190182 -0.52383,0.04292 -0.866812,0.09578 -1.118277,0.170022 -0.251465,0.07421 -0.413565,0.175445 -0.546738,0.296095 -0.131262,0.11893 -0.244774,0.244131 -0.328144,0.425291 -0.08337,0.18116 -0.137014,0.411745 -0.174667,0.751893 -0.07531,0.680323 -0.08651,1.810464 -0.09147,3.898976 -0.0052,2.20494 -0.0064,3.32804 0.07648,3.99926 0.08285,0.67119 0.277537,0.90895 0.595828,1.2273 l 0.682646,0.68265 h 11.034469 c 3.815297,0 6.611554,-0.0228 8.51266,-0.0718 0.950552,-0.0246 1.676923,-0.0553 2.197282,-0.0935 0.260178,-0.019 0.468606,-0.0404 0.629417,-0.0636 0.160814,-0.0233 0.270069,-0.0445 0.355018,-0.0832 0.195517,-0.0891 0.389086,-0.2182 0.550871,-0.35812 0.161785,-0.13991 0.29214,-0.2858 0.357084,-0.4382 0.02437,-0.0572 0.03399,-0.11467 0.04754,-0.20206 0.01355,-0.0874 0.02662,-0.19841 0.03979,-0.33126 0.02635,-0.26567 0.05227,-0.6191 0.07648,-1.03661 0.04841,-0.83502 0.08995,-1.92622 0.113174,-3.07372 0.04106,-2.02882 0.05947,-3.0739 -0.01188,-3.720197 -0.07136,-0.646272 -0.253755,-0.906701 -0.560171,-1.263465 -0.304761,-0.354859 -0.533689,-0.57277 -1.058852,-0.688869 -0.525161,-0.116073 -1.345975,-0.15248 -2.926435,-0.216509 l -3.140376,-0.127635 -0.0708,-3.808042 c -0.02426,-1.300057 -0.0176,-2.311532 0.01913,-3.023076 0.01836,-0.355786 0.04408,-0.636535 0.07648,-0.8382 0.0324,-0.201666 0.08635,-0.328983 0.09508,-0.339514 0.13285,-0.160073 0.214212,-0.313055 0.219626,-0.471276 0.0054,-0.15822 -0.08379,-0.304085 -0.222211,-0.397906 -0.276833,-0.187669 -0.746672,-0.255297 -1.437637,-0.255297 z m 0,0.264583 c 0.670449,0 1.114751,0.09147 1.289328,0.209815 0.08729,0.05916 0.108239,0.102738 0.105937,0.170021 -0.0024,0.06726 -0.04641,0.175842 -0.158647,0.311097 -0.08878,0.106971 -0.117494,0.248576 -0.152445,0.466117 -0.03495,0.21754 -0.06145,0.505751 -0.0801,0.867119 -0.03729,0.722762 -0.04344,1.73818 -0.01913,3.041676 l 0.07545,4.057121 3.389974,0.137451 c 1.579835,0.06403 2.401435,0.105093 2.879928,0.210847 0.478491,0.105754 0.614662,0.253735 0.914673,0.603064 0.301903,0.351526 0.430837,0.510117 0.49816,1.119823 0.06732,0.609732 0.05139,1.657642 0.01035,3.686092 -0.02318,1.14449 -0.06451,2.23343 -0.112657,3.06388 -0.02408,0.41524 -0.0497,0.7661 -0.07545,1.02579 -0.01286,0.12983 -0.0259,0.23667 -0.03824,0.31625 -0.01236,0.0796 -0.02879,0.13796 -0.02946,0.13952 -0.03517,0.0825 -0.143587,0.21775 -0.286806,0.3416 -0.143216,0.12385 -0.320696,0.24114 -0.487825,0.31729 -0.02959,0.0135 -0.131765,0.0407 -0.28267,0.0625 -0.150903,0.0217 -0.354405,0.0422 -0.610815,0.061 -0.512818,0.0377 -1.237128,0.0685 -2.185395,0.093 -1.896538,0.0489 -4.691187,0.0718 -8.505425,0.0718 h -10.92491 l -0.605131,-0.60513 c -0.314397,-0.31445 -0.44205,-0.4382 -0.520383,-1.0728 -0.07833,-0.63458 -0.07965,-1.76146 -0.07441,-3.96616 0.0049,-2.087719 0.01786,-3.219156 0.08992,-3.870058 0.03603,-0.325437 0.08639,-0.52832 0.151929,-0.670745 0.06554,-0.142425 0.145481,-0.230664 0.265618,-0.339513 0.111307,-0.100833 0.222983,-0.173541 0.443899,-0.23876 0.220919,-0.06519 0.549169,-0.117449 1.064535,-0.159676 1.030732,-0.08443 2.806775,-0.129805 5.996017,-0.189654 l 7.177857,-0.134355 0.07597,-4.061751 c 0.03204,-1.717305 0.03692,-2.71145 -0.01654,-3.324887 -0.02673,-0.306705 -0.06736,-0.519403 -0.133327,-0.683657 -0.06596,-0.164279 -0.163266,-0.278183 -0.275436,-0.360203 -0.164963,-0.120624 -0.239951,-0.228283 -0.255281,-0.290407 -0.01532,-0.06212 -0.0046,-0.09636 0.07907,-0.160205 0.167224,-0.127688 0.637518,-0.244952 1.321882,-0.244952 z"
       id="path8111"
       inkscape:connector-curvature="0" />
  </g>
</svg>
