<?xml version="1.0" encoding="UTF-8" standalone="no"?>
<!-- Created with Inkscape (http://www.inkscape.org/) -->

<svg
   xmlns:dc="http://purl.org/dc/elements/1.1/"
   xmlns:cc="http://creativecommons.org/ns#"
   xmlns:rdf="http://www.w3.org/1999/02/22-rdf-syntax-ns#"
   xmlns:svg="http://www.w3.org/2000/svg"
   xmlns="http://www.w3.org/2000/svg"
   xmlns:sodipodi="http://sodipodi.sourceforge.net/DTD/sodipodi-0.dtd"
   xmlns:inkscape="http://www.inkscape.org/namespaces/inkscape"
   width="49.640266mm"
   height="33.297024mm"
   viewBox="0 0 49.640266 33.297024"
   version="1.1"
   id="svg7765"
   inkscape:version="0.92.3 (2405546, 2018-03-11)"
   sodipodi:docname="engine.svg">
  <defs
     id="defs7759" />
  <sodipodi:namedview
     id="base"
     pagecolor="#ffffff"
     bordercolor="#666666"
     borderopacity="1.0"
     inkscape:pageopacity="0.0"
     inkscape:pageshadow="2"
     inkscape:zoom="1.979899"
     inkscape:cx="84.351047"
     inkscape:cy="69.991651"
     inkscape:document-units="mm"
     inkscape:current-layer="layer1"
     showgrid="false"
     inkscape:window-width="636"
     inkscape:window-height="1041"
     inkscape:window-x="887"
     inkscape:window-y="18"
     inkscape:window-maximized="0" />
  <metadata
     id="metadata7762">
    <rdf:RDF>
      <cc:Work
         rdf:about="">
        <dc:format>image/svg+xml</dc:format>
        <dc:type
           rdf:resource="http://purl.org/dc/dcmitype/StillImage" />
        <dc:title></dc:title>
      </cc:Work>
    </rdf:RDF>
  </metadata>
  <g
     inkscape:label="Layer 1"
     inkscape:groupmode="layer"
     id="layer1"
     transform="translate(-65.894201,-112.52994)">
    <path
       style="color:#000000;font-style:normal;font-variant:normal;font-weight:normal;font-stretch:normal;font-size:medium;line-height:normal;font-family:sans-serif;font-variant-ligatures:normal;font-variant-position:normal;font-variant-caps:normal;font-variant-numeric:normal;font-variant-alternates:normal;font-feature-settings:normal;text-indent:0;text-align:start;text-decoration:none;text-decoration-line:none;text-decoration-style:solid;text-decoration-color:#000000;letter-spacing:normal;word-spacing:normal;text-transform:none;writing-mode:lr-tb;direction:ltr;text-orientation:mixed;dominant-baseline:auto;baseline-shift:baseline;text-anchor:start;white-space:normal;shape-padding:0;clip-rule:nonzero;display:inline;overflow:visible;visibility:visible;opacity:1;isolation:auto;mix-blend-mode:normal;color-interpolation:sRGB;color-interpolation-filters:linearRGB;solid-color:#000000;solid-opacity:1;vector-effect:none;fill-opacity:1;fill-rule:nonzero;stroke:none;stroke-width:0.26458332;stroke-linecap:butt;stroke-linejoin:miter;stroke-miterlimit:4;stroke-dasharray:none;stroke-dashoffset:0;stroke-opacity:1;color-rendering:auto;image-rendering:auto;shape-rendering:auto;text-rendering:auto;enable-background:accumulate"
       d="m 87.906864,112.5384 c -1.262459,-0.0135 -2.919254,-0.0111 -4.666377,0.009 l -6.480757,0.076 v 1.85054 1.84743 l 2.244302,0.0786 c 0.798116,0.0279 1.342813,0.0737 1.707912,0.15036 0.365098,0.0766 0.539088,0.17814 0.63873,0.31057 0.210265,0.27945 0.288238,0.44008 0.280088,0.55967 -0.0082,0.11959 -0.106891,0.26707 -0.352954,0.51313 -0.134964,0.13497 -0.360045,0.2322 -0.865055,0.29353 -0.505037,0.0613 -1.276138,0.0832 -2.465493,0.0832 -1.061297,0 -1.831393,0.0241 -2.361619,0.0785 -0.265112,0.0272 -0.470058,0.0617 -0.626321,0.1075 -0.156263,0.0458 -0.272547,0.0972 -0.341577,0.20619 -0.08673,0.13703 -0.14179,0.36108 -0.205661,0.66612 -0.0639,0.30503 -0.122052,0.67638 -0.160205,1.04489 l -0.125571,1.20973 -1.473809,0.0708 c -0.505381,0.0243 -0.936043,0.0791 -1.270212,0.16071 -0.334168,0.0817 -0.575654,0.177 -0.70694,0.34985 -0.07287,0.0959 -0.108849,0.22167 -0.141076,0.39275 -0.0322,0.17108 -0.05469,0.38645 -0.06871,0.64646 -0.0281,0.52004 -0.02143,1.21835 0.01958,2.07327 0.07599,1.57806 0.02408,2.56413 -0.202062,3.12127 -0.113083,0.27855 -0.261541,0.44902 -0.464582,0.55964 -0.203015,0.11063 -0.469979,0.16021 -0.817007,0.16021 -0.355441,0 -0.612695,-0.018 -0.785468,-0.0966 -0.172773,-0.0786 -0.285698,-0.20953 -0.377243,-0.5116 -0.183092,-0.60412 -0.207222,-1.84788 -0.207222,-4.21524 0,-1.84033 -0.01482,-2.92645 -0.07543,-3.58119 -0.03032,-0.32734 -0.07067,-0.5475 -0.134884,-0.70847 -0.06421,-0.16097 -0.167984,-0.26781 -0.288872,-0.31419 -0.124249,-0.0477 -0.241459,-0.0837 -0.36121,-0.0853 -0.11975,-0.003 -0.244289,0.0413 -0.337978,0.13436 -0.187378,0.1861 -0.275881,0.51654 -0.347266,1.109 -0.142743,1.18485 -0.167825,3.44982 -0.182933,7.67651 -0.01746,4.91501 -0.01773,7.48954 0.08424,8.83669 0.05104,0.67355 0.119115,1.03968 0.256301,1.26503 0.06861,0.11268 0.165974,0.18901 0.271304,0.21963 0.105331,0.0306 0.208465,0.022 0.3116,0.007 0.140282,-0.0201 0.282496,-0.0517 0.391716,-0.16587 0.109246,-0.11414 0.167798,-0.28152 0.210846,-0.54314 0.0861,-0.52324 0.108532,-1.46166 0.143669,-3.26387 0.03291,-1.68865 0.0653,-2.63724 0.142107,-3.17707 0.03839,-0.2699 0.08816,-0.43534 0.145204,-0.53795 0.05704,-0.1026 0.117157,-0.15041 0.216535,-0.20359 0.299164,-0.16013 0.799677,-0.17852 1.254681,-0.0718 0.45503,0.10665 0.85598,0.34104 0.986525,0.58496 0.01402,0.0265 0.06033,0.20259 0.08991,0.44908 0.02961,0.24646 0.05456,0.57597 0.0739,0.96737 0.03871,0.78285 0.05464,1.81531 0.03979,2.94918 -0.01402,1.08095 -0.0066,2.09687 0.01746,2.86493 0.01217,0.38405 0.02834,0.70591 0.04805,0.94467 0.0098,0.11935 0.02037,0.21733 0.03257,0.29453 0.01217,0.0772 0.01297,0.12251 0.05427,0.18916 0.07046,0.114 0.178567,0.14369 0.32348,0.18343 0.144938,0.0398 0.333798,0.0716 0.566367,0.0977 0.465164,0.0521 1.104873,0.0796 1.883092,0.0796 0.678656,0 1.342972,0.018 1.864492,0.047 0.260747,0.0146 0.485749,0.0319 0.657834,0.0506 0.172085,0.0188 0.300329,0.045 0.324538,0.0543 -0.0026,0 0.03749,0.0209 0.08475,0.0605 0.04725,0.0397 0.107871,0.0966 0.178276,0.16743 0.140838,0.14176 0.32094,0.34002 0.526071,0.57827 0.41029,0.47646 0.921147,1.114 1.43092,1.79523 l 1.899629,2.53836 8.194331,-0.004 c 2.235994,0 4.337606,-0.0204 5.922645,-0.0506 0.792506,-0.0151 1.455685,-0.0329 1.943021,-0.0527 0.243681,-0.01 0.443044,-0.0201 0.593778,-0.031 0.150706,-0.0109 0.242755,-0.0183 0.313663,-0.0372 0.234924,-0.0629 0.40386,-0.13417 0.501782,-0.27544 0.04898,-0.0706 0.07131,-0.15824 0.06668,-0.24339 -0.0048,-0.085 -0.03188,-0.16848 -0.07287,-0.2563 v 0 c -0.04792,-0.10273 -0.11639,-0.42129 -0.166926,-0.81957 -0.05056,-0.39854 -0.09205,-0.88807 -0.11885,-1.3839 -0.0268,-0.49583 -0.03921,-0.99854 -0.03307,-1.42267 0.0061,-0.4241 0.03379,-0.77607 0.07543,-0.94205 0.09028,-0.35965 0.258578,-0.56367 0.451671,-0.63923 0.193093,-0.0756 0.43852,-0.0369 0.725011,0.17259 0.276966,0.20254 0.472519,0.73773 0.567399,1.80506 l 0.148325,1.66863 7.795891,-0.10076 c 2.11059,-0.0273 4.05165,-0.0651 5.47926,-0.10387 0.71382,-0.0193 1.29876,-0.0391 1.7136,-0.0579 0.20741,-0.01 0.37238,-0.0185 0.49041,-0.0274 0.059,-0.005 0.10572,-0.009 0.14263,-0.014 0.0185,-0.003 0.0343,-0.005 0.0496,-0.008 0.0153,-0.003 0.0251,0 0.0605,-0.0212 0.056,-0.0324 0.0705,-0.0697 0.0858,-0.10388 0.0153,-0.0342 0.0259,-0.0703 0.0362,-0.11266 0.0206,-0.0846 0.0376,-0.19259 0.0527,-0.32504 0.0303,-0.2649 0.0532,-0.626 0.0698,-1.05418 0.0331,-0.8564 0.0403,-1.97958 0.0259,-3.10782 -0.0145,-1.12826 -0.0506,-2.26129 -0.10594,-3.13677 -0.0277,-0.43775 -0.06,-0.81065 -0.0971,-1.08934 -0.0185,-0.13936 -0.0383,-0.25498 -0.0605,-0.34623 -0.0222,-0.0913 -0.0293,-0.15328 -0.0987,-0.22273 -0.0836,-0.0836 -0.19727,-0.12568 -0.34985,-0.16743 -0.15256,-0.0417 -0.3442,-0.0761 -0.57412,-0.10387 -0.45982,-0.0556 -1.07096,-0.0853 -1.79626,-0.0853 h -2.25208 l -2.68251,-2.87063 c -1.57673,-1.68738 -2.37651,-2.55119 -2.79519,-3.1714 -0.41867,-0.62018 -0.46847,-0.99237 -0.56224,-1.77869 l -0.15501,-1.30328 -2.29651,-0.0806 -2.31923,-0.0816 -0.0042,1.00666 c -0.0026,0.65802 -0.07009,1.15247 -0.197379,1.49034 -0.127318,0.33788 -0.300832,0.51425 -0.541576,0.59066 -0.310383,0.0985 -0.572505,0.0297 -0.773086,-0.15864 -0.200581,-0.18839 -0.336418,-0.50787 -0.336418,-0.9188 0,-0.48543 -0.115649,-0.8551 -0.417539,-1.09709 -0.301889,-0.24202 -0.753904,-0.34981 -1.41179,-0.40413 -0.258392,-0.0214 -0.443256,-0.0393 -0.591714,-0.0904 -0.148506,-0.0511 -0.269817,-0.13206 -0.42018,-0.30792 -0.300699,-0.35174 -0.686488,-1.07932 -1.443302,-2.52699 l -1.557549,-2.97915 -2.14249,-0.0692 c -0.566023,-0.0183 -1.144799,-0.0494 -1.619541,-0.0847 -0.474742,-0.0354 -0.85479,-0.0779 -0.986499,-0.108 -0.316521,-0.0724 -0.519298,-0.24535 -0.61341,-0.46768 -0.09411,-0.22233 -0.08149,-0.50419 0.08009,-0.80616 0.09612,-0.17957 0.203359,-0.27297 0.522473,-0.35242 0.319087,-0.0795 0.838914,-0.12227 1.679998,-0.15399 l 2.168843,-0.0816 0.08424,-1.76684 c 0.03651,-0.76496 0.05239,-1.17917 -0.03101,-1.4619 -0.0417,-0.14139 -0.119512,-0.25286 -0.225319,-0.32454 -0.105807,-0.0717 -0.228309,-0.10705 -0.373618,-0.14263 -0.06398,-0.0156 -0.146977,-0.0233 -0.273871,-0.032 -0.12692,-0.009 -0.291412,-0.0167 -0.489902,-0.0238 -0.396955,-0.014 -0.929402,-0.0249 -1.560619,-0.0315 z m -0.0032,0.26459 c 0.629841,0.007 1.161151,0.0175 1.554427,0.0315 0.196612,0.007 0.358643,0.0148 0.480589,0.0233 0.12192,0.008 0.209842,0.0201 0.229421,0.0249 0.136763,0.0335 0.23069,0.0658 0.288369,0.10491 0.05768,0.0391 0.0907,0.0813 0.119883,0.18037 0.05839,0.19801 0.05707,0.61216 0.02064,1.37459 l -0.07284,1.52392 -1.925981,0.0729 c -0.845582,0.0319 -1.372447,0.0713 -1.733762,0.16124 -0.361288,0.09 -0.568034,0.25321 -0.691938,0.48472 -0.191849,0.35848 -0.219551,0.72903 -0.09043,1.03404 0.129117,0.30504 0.413518,0.53425 0.797878,0.62219 0.179652,0.0411 0.546629,0.0785 1.02579,0.1142 0.479133,0.0357 1.061005,0.0669 1.630891,0.0853 l 1.988,0.0641 1.485688,2.8422 c 0.756894,1.44778 1.133925,2.17538 1.476931,2.57659 0.171476,0.20059 0.34253,0.32028 0.534855,0.38653 0.192299,0.0663 0.397298,0.082 0.656273,0.10335 0.637937,0.0527 1.039892,0.16378 1.268148,0.34676 0.228256,0.18296 0.31832,0.4445 0.31832,0.89091 0,0.46916 0.154993,0.86254 0.420132,1.11154 0.265139,0.24903 0.644022,0.34187 1.034044,0.2181 0.323506,-0.10269 0.56306,-0.36248 0.709004,-0.74983 0.145944,-0.38738 0.211667,-0.9067 0.214445,-1.58184 l 0.0032,-0.7343 2.046369,0.0718 2.06965,0.0729 0.12866,1.07799 c 0.094,0.78859 0.1637,1.24132 0.60566,1.89601 0.44194,0.65466 1.2441,1.51585 2.82102,3.20341 l 2.76106,2.95487 h 2.3668 c 0.71803,0 1.32109,0.0296 1.76421,0.0832 0.22159,0.0268 0.40339,0.0597 0.53642,0.0961 0.13303,0.0364 0.21696,0.0841 0.23254,0.0997 -0.0249,-0.0249 0.0106,0.0222 0.0289,0.0982 0.0185,0.0759 0.0374,0.18494 0.0553,0.31885 0.0357,0.26784 0.0677,0.63704 0.0951,1.07124 0.0549,0.86845 0.091,1.99801 0.10544,3.12283 0.0143,1.12482 0.007,2.24538 -0.0259,3.09438 -0.0164,0.4245 -0.0393,0.78134 -0.0682,1.03404 -0.0145,0.12634 -0.0306,0.22739 -0.0465,0.293 -0.006,0.0222 -0.01,0.0332 -0.0145,0.046 -0.029,0.004 -0.0697,0.008 -0.12351,0.0119 -0.11305,0.008 -0.2762,0.0175 -0.48212,0.0269 -0.41191,0.0188 -0.99608,0.0385 -1.70895,0.0579 -1.42576,0.0388 -3.3661,0.0766 -5.47563,0.10388 l -7.550464,0.0977 -0.126604,-1.4242 c -0.09686,-1.08945 -0.276965,-1.70463 -0.67437,-1.99522 -0.334195,-0.24437 -0.683418,-0.32105 -0.978244,-0.20569 -0.294798,0.11538 -0.507656,0.40865 -0.611319,0.82166 -0.05493,0.21889 -0.07747,0.57021 -0.08372,1.00254 -0.0063,0.4323 0.0066,0.93921 0.03358,1.4402 0.02709,0.50102 0.06871,0.99597 0.120412,1.40354 0.0517,0.40756 0.104828,0.71649 0.189653,0.89813 0.03215,0.0688 0.04659,0.12268 0.04858,0.15917 0.0026,0.0365 -0.0037,0.0549 -0.01958,0.078 -0.03207,0.0463 -0.1415,0.11427 -0.353484,0.17105 -0.01296,0.003 -0.117475,0.018 -0.263525,0.0284 -0.14605,0.0106 -0.343984,0.0206 -0.586025,0.0305 -0.484082,0.0196 -1.14599,0.0376 -1.937359,0.0527 -1.582684,0.0302 -3.682894,0.0496 -5.917459,0.0506 l -8.062039,0.004 -1.820043,-2.43242 c -0.513106,-0.68567 -1.026689,-1.32654 -1.442296,-1.80919 -0.207778,-0.24133 -0.390896,-0.44265 -0.538983,-0.59169 -0.07403,-0.0745 -0.138986,-0.13626 -0.195845,-0.18397 -0.05686,-0.0477 -0.09985,-0.0819 -0.159676,-0.1049 -0.09088,-0.0349 -0.211746,-0.0507 -0.391186,-0.0703 -0.179467,-0.0196 -0.407882,-0.037 -0.671804,-0.0517 -0.527817,-0.0293 -1.195626,-0.0475 -1.878965,-0.0475 -0.771895,0 -1.404911,-0.0278 -1.853618,-0.078 -0.224367,-0.0251 -0.403066,-0.0563 -0.525568,-0.0899 -0.122502,-0.0336 -0.181795,-0.088 -0.168963,-0.0672 0.01588,0.0257 -0.0071,-0.0243 -0.01746,-0.091 -0.01032,-0.0665 -0.0209,-0.16042 -0.03051,-0.27594 -0.01905,-0.23106 -0.03503,-0.54943 -0.04702,-0.93069 -0.02408,-0.76253 -0.0322,-1.77607 -0.01799,-2.85359 0.01482,-1.1384 -1.85e-4,-2.17442 -0.03926,-2.96518 -0.0196,-0.39543 -0.04518,-0.72958 -0.07598,-0.98604 -0.0308,-0.25643 -0.05519,-0.42267 -0.11938,-0.54258 -0.195607,-0.36552 -0.65868,-0.59997 -1.159087,-0.71728 -0.500433,-0.11732 -1.046903,-0.11491 -1.440233,0.0956 -0.125095,0.067 -0.240638,0.16092 -0.322977,0.30903 -0.08234,0.14814 -0.135043,0.3425 -0.17571,0.62839 -0.08133,0.57176 -0.111733,1.51966 -0.144674,3.20963 -0.03511,1.80163 -0.06122,2.74712 -0.140044,3.22614 -0.03942,0.23953 -0.09247,0.3523 -0.141076,0.4031 -0.04863,0.0508 -0.110304,0.0686 -0.237728,0.0868 -0.08975,0.0127 -0.156315,0.0135 -0.200501,0 -0.04418,-0.013 -0.07662,-0.0326 -0.11938,-0.10285 -0.08549,-0.14041 -0.168513,-0.48694 -0.218572,-1.14773 -0.100145,-1.32157 -0.100754,-3.90083 -0.08321,-8.8155 0.01508,-4.22592 0.04252,-6.49771 0.180869,-7.64603 0.06919,-0.57417 0.178065,-0.85979 0.271304,-0.9524 0.04662,-0.0463 0.08308,-0.0587 0.148299,-0.0579 0.06525,0 0.157348,0.0249 0.26924,0.0677 0.05564,0.0214 0.09186,0.0485 0.138509,0.16536 0.04662,0.1169 0.08755,0.31875 0.116788,0.63458 0.05845,0.63169 0.0744,1.71805 0.0744,3.5569 0,2.3686 0.0095,3.60236 0.218598,4.29223 0.104537,0.34496 0.277469,0.56473 0.520886,0.67543 0.243443,0.1107 0.532818,0.12041 0.895032,0.12041 0.371978,0 0.685059,-0.0519 0.943637,-0.19277 0.25855,-0.14087 0.452728,-0.37182 0.582903,-0.69245 0.26035,-0.64129 0.297656,-1.6451 0.221165,-3.23339 -0.04088,-0.84926 -0.04638,-1.54077 -0.01905,-2.04589 0.01376,-0.25254 0.03577,-0.45876 0.06459,-0.61185 0.02881,-0.15308 0.07059,-0.25418 0.09147,-0.28162 0.05157,-0.0679 0.249608,-0.17761 0.559144,-0.25323 0.309537,-0.0756 0.726229,-0.1298 1.219571,-0.15346 l 1.701165,-0.0817 0.148828,-1.4361 c 0.0372,-0.3591 0.0944,-0.72308 0.156078,-1.01751 0.06165,-0.2944 0.142134,-0.53391 0.170524,-0.57878 0.0048,-0.007 0.06242,-0.0555 0.192246,-0.0935 0.129831,-0.038 0.322739,-0.0719 0.578776,-0.0982 0.512075,-0.0526 1.277514,-0.0775 2.334736,-0.0775 1.192583,0 1.968368,-0.0212 2.497508,-0.0853 0.529167,-0.0643 0.825844,-0.1747 1.020101,-0.36896 0.256117,-0.25612 0.413915,-0.44701 0.429948,-0.68215 0.01614,-0.23511 -0.114088,-0.44622 -0.332793,-0.73689 -0.150653,-0.20024 -0.399759,-0.32731 -0.795311,-0.41031 -0.395525,-0.083 -0.949536,-0.12745 -1.753367,-0.15555 l -1.989032,-0.0698 v -1.59213 -1.58906 l 6.21927,-0.0729 c 1.74535,-0.0206 3.400451,-0.0228 4.660185,-0.009 z"
       id="path7701"
       inkscape:connector-curvature="0" />
  </g>
</svg>
